<?xml version="1.0" encoding="utf-8"?>
<!-- Generator: Adobe Illustrator 16.0.0, SVG Export Plug-In . SVG Version: 6.00 Build 0)  -->
<!DOCTYPE svg PUBLIC "-//W3C//DTD SVG 1.1//EN" "http://www.w3.org/Graphics/SVG/1.1/DTD/svg11.dtd">
<svg version="1.1" id="Layer_1" xmlns="http://www.w3.org/2000/svg" xmlns:xlink="http://www.w3.org/1999/xlink" x="0px" y="0px"
	 width="300px" height="103.188px" viewBox="0 0 300 103.188" enable-background="new 0 0 300 103.188" xml:space="preserve">
<g>
	<path fill="#ED1C24" d="M48.437,43.645c24.139,29.458-28.304,36.794-21.836,0.916c0.821-4.56-3.507-5.228-4.422-2.668
		c-12.276,34.295,13.38,43.437,27.62,58.616c20.708-25.998,16.128-44.694,2.686-57.863C50.059,40.271,46.847,41.702,48.437,43.645"
		/>
	<path fill="#ED1C24" d="M48.916,54.208c0,4.835-3.918,8.755-8.755,8.755c-4.833,0-8.755-3.92-8.755-8.755s3.921-8.754,8.755-8.754
		C44.997,45.455,48.916,49.374,48.916,54.208"/>
	<path fill="#0095DA" d="M52.918,30.406c-1.441-5.074,3.996-6.766,6.775-2.537c14.108,21.465,42.43,0.796,31.841-19.292
		c-1.433-2.719,0.797-5.568,4.238-2.529c6.01,5.305,10.064,13.486,10.064,23.753c0,31.453-41.84,63.65-52.918,73.388
		C88.6,58.461,57.805,47.611,52.918,30.406"/>
	<path fill="#0095DA" d="M75.783,4.851c-5.971,0-10.814,4.842-10.814,10.815c0,5.971,4.843,10.814,10.814,10.814
		c5.973,0,10.816-4.843,10.816-10.814C86.599,9.693,81.756,4.851,75.783,4.851"/>
	<path fill="#EEDE10" d="M34.471,35.787c-3.012-4.505-13.537-16.402-8.814-24.104c2.736-4.46,10.844-3.892,20.234,1.364
		c2.234,1.25,5.123-1.351,3.397-2.94C26.604-10.799,0,3.16,0,29.8c0,13.614,7.84,27.365,17.632,39.377
		C2.008,31.218,14.436,23.8,30.622,39.989C32.971,42.339,36.833,39.32,34.471,35.787"/>
	<path fill="#8CC63F" d="M39.553,15.263c-4.076,0-7.383,3.306-7.383,7.383c0,4.078,3.307,7.383,7.383,7.383
		c4.078,0,7.385-3.306,7.385-7.383C46.938,18.569,43.631,15.263,39.553,15.263"/>
	<path fill="#00AEEF" d="M95.773,6.047c-3.441-3.039-5.671-0.19-4.238,2.529c10.588,20.089-17.733,40.758-31.841,19.292
		c-2.78-4.229-8.217-2.537-6.775,2.537c1.26,4.432,4.237,8.443,7.354,12.718c20.189,2.999,38.016-1.139,45.43-10.242
		c0.086-1.027,0.134-2.055,0.134-3.082C105.837,19.533,101.783,11.352,95.773,6.047"/>
	<path fill="#00AEEF" d="M75.783,26.481c5.973,0,10.816-4.843,10.816-10.814c0-5.973-4.843-10.815-10.816-10.815
		c-5.971,0-10.814,4.842-10.814,10.815C64.968,21.638,69.812,26.481,75.783,26.481"/>
	<path fill="#FFF200" d="M46.938,22.646c0-4.077-3.307-7.383-7.385-7.383c-4.076,0-7.383,3.306-7.383,7.383
		c0,4.078,3.307,7.383,7.383,7.383C43.631,30.029,46.938,26.723,46.938,22.646"/>
	<path fill="#FFF200" d="M8.335,7.578C9.069,17.586,19.063,28.051,34.086,35.23c-3.421-4.863-12.97-16.143-8.43-23.547
		c2.736-4.46,10.844-3.892,20.234,1.364c2.234,1.25,5.123-1.351,3.397-2.94C34.476-3.545,17.992-2.327,8.335,7.578"/>
	<g>
		<path fill="#43525A" d="M121.869,58.179c-0.1,0.316-0.229,0.535-0.388,0.654c-0.159,0.119-0.377,0.179-0.655,0.179h-3.306
			c-0.219,0-0.368-0.045-0.447-0.134s-0.069-0.302,0.03-0.64l5.749-18.169c0.099-0.277,0.218-0.491,0.358-0.64
			c0.139-0.148,0.406-0.223,0.804-0.223h3.753c0.417,0,0.689,0.079,0.819,0.238c0.128,0.159,0.243,0.377,0.342,0.655l5.986,18.199
			c0.06,0.237,0.07,0.416,0.03,0.535c-0.04,0.119-0.168,0.179-0.387,0.179h-3.694c-0.337,0-0.565-0.074-0.685-0.223
			c-0.119-0.149-0.229-0.384-0.327-0.7l-0.983-3.545h-5.927L121.869,58.179z M126.932,47.651l-0.952-3.65h-0.149l-0.983,3.619
			l-0.894,3.321h3.872L126.932,47.651z"/>
	</g>
	<g>
		<path fill="#43525A" d="M145.091,50.405l2.263-4.676l2.889-5.778c0.138-0.238,0.287-0.421,0.446-0.551
			c0.16-0.129,0.437-0.193,0.835-0.193h2.442c0.278,0,0.447,0.075,0.506,0.223c0.06,0.149,0.089,0.293,0.089,0.432v18.497
			c0,0.159-0.03,0.308-0.089,0.446c-0.06,0.14-0.229,0.208-0.506,0.208h-3.337c-0.257,0-0.432-0.06-0.521-0.179
			c-0.089-0.119-0.134-0.278-0.134-0.476v-9.115l-0.089-0.03l-1.042,2.325l-1.876,3.84c-0.14,0.24-0.298,0.428-0.477,0.567
			c-0.179,0.14-0.437,0.208-0.774,0.208h-1.459c-0.357,0-0.621-0.063-0.79-0.193s-0.323-0.303-0.461-0.522l-1.936-3.99l-1.042-2.264
			l-0.06,0.029v9.146c0,0.159-0.035,0.308-0.104,0.446c-0.07,0.14-0.244,0.208-0.522,0.208h-3.335c-0.238,0-0.402-0.06-0.491-0.179
			s-0.135-0.278-0.135-0.476V39.861c0-0.178,0.045-0.332,0.135-0.461c0.089-0.129,0.253-0.193,0.491-0.193h2.562
			c0.397,0,0.68,0.055,0.849,0.164c0.168,0.109,0.323,0.293,0.462,0.551l2.889,5.868l2.204,4.617H145.091z"/>
	</g>
	<g>
		<path fill="#43525A" d="M159.794,58.179c-0.1,0.316-0.229,0.535-0.387,0.654c-0.16,0.119-0.377,0.179-0.656,0.179h-3.306
			c-0.218,0-0.367-0.045-0.447-0.134c-0.08-0.089-0.069-0.302,0.03-0.64l5.748-18.169c0.099-0.277,0.22-0.491,0.357-0.64
			c0.14-0.148,0.407-0.223,0.806-0.223h3.752c0.417,0,0.69,0.079,0.818,0.238c0.13,0.159,0.244,0.377,0.343,0.655l5.987,18.199
			c0.06,0.237,0.069,0.416,0.03,0.535c-0.041,0.119-0.169,0.179-0.389,0.179h-3.692c-0.339,0-0.566-0.074-0.685-0.223
			c-0.119-0.149-0.229-0.384-0.328-0.7l-0.983-3.545h-5.927L159.794,58.179z M164.857,47.651l-0.954-3.65h-0.148l-0.982,3.619
			l-0.893,3.321h3.871L164.857,47.651z"/>
	</g>
	<g>
		<path fill="#43525A" d="M173.426,39.891c0-0.198,0.045-0.362,0.134-0.491c0.09-0.129,0.254-0.193,0.491-0.193h3.484
			c0.279,0,0.452,0.075,0.521,0.223c0.07,0.149,0.105,0.303,0.105,0.461v18.467c0,0.159-0.035,0.308-0.105,0.446
			c-0.069,0.14-0.242,0.208-0.521,0.208h-3.484c-0.237,0-0.401-0.06-0.491-0.179c-0.089-0.119-0.134-0.278-0.134-0.476V39.891z"/>
	</g>
	<g>
		<path fill="#43525A" d="M189.32,47.754c0.257,0,0.427,0.045,0.506,0.134c0.08,0.089,0.119,0.234,0.119,0.432v2.294
			c0,0.218-0.039,0.377-0.119,0.476c-0.079,0.099-0.249,0.149-0.506,0.149h-9.292c-0.418,0-0.627-0.209-0.627-0.625v-2.265
			c0-0.397,0.209-0.595,0.627-0.595H189.32z"/>
	</g>
	<g>
		<path fill="#43525A" d="M196.43,47.04l1.905,6.463h0.15l1.846-6.522l1.996-6.851c0.099-0.298,0.232-0.526,0.401-0.685
			c0.17-0.159,0.423-0.238,0.76-0.238h3.456c0.298,0,0.45,0.079,0.461,0.238c0.01,0.159-0.015,0.328-0.074,0.506l-6.046,18.199
			c-0.101,0.257-0.225,0.466-0.374,0.625c-0.148,0.16-0.451,0.238-0.907,0.238h-3.365c-0.398,0-0.686-0.068-0.863-0.208
			c-0.181-0.139-0.309-0.347-0.389-0.625L189.37,39.95c-0.099-0.218-0.119-0.397-0.06-0.536s0.238-0.208,0.536-0.208h3.188
			c0.396,0,0.679,0.06,0.848,0.179c0.168,0.119,0.293,0.337,0.372,0.655L196.43,47.04z"/>
	</g>
	<g>
		<path fill="#43525A" d="M224.178,48.856c0,1.131-0.085,2.308-0.253,3.528c-0.169,1.223-0.551,2.344-1.147,3.367
			c-0.596,1.022-1.464,1.867-2.606,2.53c-1.142,0.666-2.685,0.999-4.63,0.999c-1.291,0-2.398-0.154-3.322-0.462
			c-0.923-0.307-1.697-0.72-2.322-1.235c-0.626-0.517-1.123-1.123-1.489-1.817c-0.368-0.694-0.651-1.431-0.849-2.204
			c-0.199-0.774-0.328-1.564-0.388-2.368s-0.089-1.583-0.089-2.338c0-0.575,0.034-1.227,0.104-1.952
			c0.068-0.724,0.208-1.449,0.416-2.173c0.209-0.725,0.501-1.434,0.879-2.13c0.377-0.695,0.878-1.311,1.505-1.846
			c0.625-0.537,1.394-0.968,2.309-1.296c0.911-0.328,2.004-0.492,3.275-0.492c1.866,0,3.36,0.293,4.481,0.879
			c1.122,0.586,1.991,1.351,2.606,2.293c0.616,0.943,1.023,2.005,1.222,3.187C224.078,46.508,224.178,47.684,224.178,48.856z
			 M219.323,49.183c0-2.125-0.265-3.678-0.789-4.661c-0.526-0.982-1.505-1.474-2.934-1.474c-1.332,0-2.249,0.502-2.756,1.504
			c-0.506,1.003-0.76,2.547-0.76,4.631c0,2.005,0.243,3.51,0.73,4.513c0.485,1.003,1.414,1.503,2.785,1.503
			c1.408,0,2.383-0.489,2.918-1.473C219.055,52.742,219.323,51.229,219.323,49.183z"/>
	</g>
	<g>
		<path fill="#43525A" d="M232.209,59.281c-0.318,0-0.715-0.016-1.19-0.045c-0.478-0.03-0.984-0.08-1.52-0.149
			c-0.536-0.068-1.077-0.163-1.624-0.282c-0.546-0.119-1.057-0.269-1.533-0.446c-0.497-0.198-0.774-0.388-0.834-0.566
			s-0.06-0.407,0-0.685l0.357-1.729c0.099-0.395,0.218-0.614,0.357-0.654c0.138-0.039,0.406-0.03,0.804,0.029
			c0.357,0.041,0.755,0.086,1.192,0.136c0.436,0.049,0.882,0.095,1.34,0.133c0.456,0.04,0.913,0.075,1.37,0.105
			c0.456,0.029,0.894,0.043,1.311,0.043c1.012,0,1.752-0.157,2.219-0.477c0.466-0.316,0.699-0.793,0.699-1.429
			c0-0.357-0.05-0.649-0.148-0.88c-0.101-0.227-0.264-0.421-0.491-0.579c-0.229-0.159-0.517-0.293-0.863-0.403
			c-0.348-0.107-0.771-0.214-1.267-0.313c-0.854-0.179-1.698-0.391-2.532-0.64c-0.833-0.249-1.577-0.59-2.233-1.028
			c-0.655-0.436-1.188-1.002-1.593-1.697c-0.407-0.695-0.61-1.578-0.61-2.651c0-0.973,0.168-1.836,0.506-2.591
			c0.337-0.754,0.818-1.385,1.444-1.891c0.625-0.507,1.385-0.894,2.278-1.162c0.894-0.269,1.887-0.402,2.979-0.402
			c0.277,0,0.64,0.005,1.088,0.015c0.446,0.011,0.933,0.045,1.459,0.104c0.526,0.06,1.062,0.149,1.608,0.269
			c0.546,0.119,1.057,0.278,1.533,0.476c0.497,0.179,0.774,0.363,0.835,0.551c0.06,0.189,0.069,0.422,0.029,0.7l-0.418,1.757
			c-0.039,0.199-0.089,0.342-0.148,0.432c-0.06,0.089-0.14,0.149-0.238,0.179s-0.224,0.04-0.372,0.03s-0.323-0.025-0.521-0.044
			c-0.675-0.1-1.365-0.179-2.07-0.239c-0.704-0.06-1.514-0.089-2.427-0.089c-0.875,0-1.524,0.139-1.95,0.417
			c-0.428,0.278-0.642,0.734-0.642,1.37c0,0.318,0.045,0.576,0.134,0.774c0.09,0.199,0.238,0.368,0.448,0.507
			c0.208,0.139,0.48,0.253,0.818,0.341c0.337,0.089,0.754,0.184,1.251,0.284c0.854,0.179,1.698,0.387,2.531,0.625
			c0.835,0.238,1.579,0.577,2.234,1.012c0.654,0.437,1.187,1.018,1.594,1.742c0.406,0.726,0.61,1.673,0.61,2.845
			s-0.219,2.154-0.655,2.948c-0.437,0.795-1.019,1.431-1.742,1.907c-0.726,0.477-1.56,0.818-2.502,1.026
			C234.17,59.176,233.202,59.281,232.209,59.281z"/>
	</g>
	<g>
		<path fill="#43525A" d="M257.993,55.199c1.013,0,1.787-0.297,2.322-0.893c0.537-0.596,0.806-1.519,0.806-2.769l-0.03-11.647
			c0-0.198,0.049-0.362,0.149-0.491c0.099-0.129,0.277-0.193,0.535-0.193h3.425c0.279,0,0.452,0.075,0.521,0.223
			c0.07,0.149,0.104,0.303,0.104,0.461l-0.03,11.766c0,0.575-0.034,1.155-0.104,1.741c-0.068,0.586-0.223,1.187-0.461,1.801
			c-0.298,0.736-0.7,1.361-1.206,1.879c-0.506,0.516-1.082,0.937-1.728,1.265s-1.336,0.566-2.07,0.715
			c-0.735,0.148-1.479,0.224-2.233,0.224c-1.251,0.019-2.358-0.154-3.321-0.521c-0.964-0.366-1.771-0.889-2.428-1.563
			c-0.655-0.677-1.151-1.486-1.488-2.428c-0.339-0.944-0.507-1.981-0.507-3.112V39.891c0-0.198,0.045-0.362,0.135-0.491
			c0.089-0.129,0.262-0.193,0.521-0.193h3.425c0.279,0,0.452,0.075,0.521,0.223c0.07,0.149,0.104,0.303,0.104,0.461v11.647
			C254.954,53.979,255.968,55.199,257.993,55.199z"/>
	</g>
	<g>
		<path fill="#43525A" d="M272.606,47.933h-0.089v10.455c0,0.16-0.04,0.303-0.119,0.432s-0.248,0.193-0.507,0.193h-3.306
			c-0.457,0-0.685-0.208-0.685-0.625V39.891c0-0.178,0.049-0.332,0.149-0.461c0.099-0.129,0.268-0.193,0.506-0.193h2.442
			c0.456,0,0.769,0.079,0.938,0.238c0.169,0.159,0.333,0.367,0.491,0.625c0.16,0.258,0.418,0.656,0.775,1.191
			c0.357,0.536,0.759,1.147,1.206,1.832c0.446,0.686,0.913,1.4,1.4,2.145c0.485,0.744,0.952,1.458,1.399,2.145
			c0.446,0.685,0.844,1.295,1.191,1.831c0.347,0.536,0.6,0.924,0.76,1.162c0.019,0,0.033-0.004,0.044-0.015
			c0.01-0.011,0.024-0.015,0.045-0.015V39.92c0-0.159,0.039-0.313,0.119-0.461c0.078-0.149,0.257-0.223,0.536-0.223h3.306
			c0.238,0,0.402,0.06,0.491,0.179c0.091,0.119,0.136,0.288,0.136,0.506v18.467c0,0.197-0.045,0.352-0.136,0.462
			c-0.089,0.109-0.253,0.163-0.491,0.163h-2.442c-0.337,0-0.596-0.06-0.774-0.179s-0.348-0.286-0.506-0.506
			c-0.755-1.131-1.509-2.26-2.264-3.38c-0.755-1.123-1.509-2.249-2.264-3.381L272.606,47.933z"/>
	</g>
	<g>
		<path fill="#43525A" d="M292.196,59.281c-0.318,0-0.715-0.016-1.19-0.045c-0.478-0.03-0.984-0.08-1.52-0.149
			c-0.536-0.068-1.077-0.163-1.624-0.282c-0.546-0.119-1.057-0.269-1.533-0.446c-0.497-0.198-0.774-0.388-0.834-0.566
			s-0.06-0.407,0-0.685l0.357-1.729c0.099-0.395,0.218-0.614,0.357-0.654c0.138-0.039,0.406-0.03,0.804,0.029
			c0.357,0.041,0.755,0.086,1.192,0.136c0.436,0.049,0.882,0.095,1.34,0.133c0.455,0.04,0.913,0.075,1.37,0.105
			c0.456,0.029,0.894,0.043,1.31,0.043c1.013,0,1.753-0.157,2.22-0.477c0.466-0.316,0.699-0.793,0.699-1.429
			c0-0.357-0.05-0.649-0.148-0.88c-0.101-0.227-0.264-0.421-0.491-0.579c-0.229-0.159-0.517-0.293-0.863-0.403
			c-0.348-0.107-0.771-0.214-1.267-0.313c-0.854-0.179-1.698-0.391-2.532-0.64c-0.833-0.249-1.577-0.59-2.233-1.028
			c-0.655-0.436-1.188-1.002-1.593-1.697c-0.407-0.695-0.61-1.578-0.61-2.651c0-0.973,0.168-1.836,0.506-2.591
			c0.337-0.754,0.818-1.385,1.444-1.891c0.625-0.507,1.385-0.894,2.278-1.162c0.894-0.269,1.887-0.402,2.979-0.402
			c0.277,0,0.64,0.005,1.088,0.015c0.446,0.011,0.933,0.045,1.459,0.104c0.526,0.06,1.062,0.149,1.608,0.269
			c0.545,0.119,1.057,0.278,1.533,0.476c0.497,0.179,0.774,0.363,0.835,0.551c0.06,0.189,0.069,0.422,0.029,0.7l-0.418,1.757
			c-0.039,0.199-0.089,0.342-0.148,0.432c-0.06,0.089-0.14,0.149-0.238,0.179s-0.224,0.04-0.372,0.03s-0.323-0.025-0.521-0.044
			c-0.675-0.1-1.365-0.179-2.07-0.239c-0.705-0.06-1.514-0.089-2.427-0.089c-0.875,0-1.524,0.139-1.95,0.417
			c-0.428,0.278-0.642,0.734-0.642,1.37c0,0.318,0.045,0.576,0.134,0.774c0.09,0.199,0.238,0.368,0.448,0.507
			c0.208,0.139,0.48,0.253,0.818,0.341c0.337,0.089,0.754,0.184,1.251,0.284c0.854,0.179,1.698,0.387,2.531,0.625
			c0.835,0.238,1.579,0.577,2.234,1.012c0.654,0.437,1.187,1.018,1.594,1.742c0.406,0.726,0.61,1.673,0.61,2.845
			s-0.219,2.154-0.655,2.948c-0.437,0.795-1.019,1.431-1.742,1.907c-0.726,0.477-1.56,0.818-2.502,1.026
			C294.157,59.176,293.189,59.281,292.196,59.281z"/>
	</g>
	<g>
		<path fill="#43525A" d="M121.868,84.053c-0.1,0.317-0.229,0.537-0.388,0.656s-0.377,0.178-0.655,0.178h-3.306
			c-0.219,0-0.368-0.046-0.447-0.135c-0.08-0.09-0.07-0.302,0.029-0.64l5.749-18.17c0.1-0.275,0.218-0.489,0.358-0.639
			c0.139-0.148,0.407-0.225,0.804-0.225h3.753c0.417,0,0.689,0.08,0.819,0.238c0.129,0.16,0.243,0.379,0.342,0.655l5.987,18.198
			c0.059,0.24,0.069,0.419,0.029,0.538c-0.04,0.119-0.168,0.178-0.387,0.178h-3.693c-0.338,0-0.566-0.075-0.685-0.225
			c-0.119-0.148-0.229-0.381-0.327-0.699l-0.983-3.544h-5.927L121.868,84.053z M126.931,73.525l-0.953-3.649h-0.149l-0.983,3.618
			l-0.894,3.321h3.872L126.931,73.525z"/>
	</g>
	<g>
		<path fill="#43525A" d="M151.851,74.731c0,1.131-0.086,2.309-0.254,3.529c-0.168,1.22-0.551,2.344-1.146,3.366
			c-0.596,1.021-1.465,1.866-2.606,2.53c-1.142,0.666-2.686,0.999-4.632,0.999c-1.291,0-2.397-0.154-3.321-0.463
			c-0.923-0.308-1.697-0.72-2.323-1.235c-0.625-0.516-1.122-1.122-1.489-1.817c-0.367-0.694-0.65-1.429-0.848-2.203
			c-0.199-0.775-0.328-1.564-0.388-2.368s-0.089-1.583-0.089-2.338c0-0.576,0.035-1.227,0.104-1.951
			c0.07-0.726,0.208-1.449,0.417-2.174c0.208-0.725,0.501-1.434,0.878-2.13c0.377-0.695,0.879-1.311,1.504-1.847
			c0.626-0.537,1.395-0.968,2.309-1.295c0.914-0.329,2.005-0.492,3.276-0.492c1.867,0,3.361,0.293,4.483,0.879
			c1.122,0.585,1.991,1.351,2.606,2.293c0.616,0.944,1.021,2.005,1.222,3.188C151.751,72.381,151.851,73.559,151.851,74.731z
			 M146.995,75.058c0-2.124-0.263-3.678-0.789-4.661c-0.526-0.982-1.504-1.474-2.935-1.474c-1.33,0-2.248,0.5-2.755,1.503
			c-0.506,1.003-0.759,2.547-0.759,4.632c0,2.006,0.243,3.511,0.729,4.512c0.486,1.004,1.415,1.505,2.785,1.505
			c1.41,0,2.383-0.491,2.919-1.476C146.728,78.617,146.995,77.104,146.995,75.058z"/>
	</g>
	<g>
		<path fill="#43525A" d="M159.882,85.156c-0.317,0-0.714-0.017-1.19-0.046c-0.478-0.03-0.984-0.079-1.52-0.149
			c-0.536-0.068-1.077-0.162-1.624-0.281c-0.545-0.119-1.057-0.268-1.533-0.446c-0.497-0.199-0.774-0.389-0.833-0.567
			s-0.06-0.407,0-0.685l0.357-1.728c0.099-0.396,0.218-0.614,0.357-0.655c0.138-0.041,0.406-0.029,0.804,0.029
			c0.357,0.041,0.755,0.084,1.192,0.135c0.436,0.05,0.882,0.095,1.34,0.134c0.456,0.04,0.913,0.074,1.371,0.104
			c0.456,0.029,0.893,0.044,1.31,0.044c1.012,0,1.752-0.158,2.219-0.476c0.466-0.317,0.7-0.795,0.7-1.43
			c0-0.357-0.051-0.65-0.149-0.879c-0.1-0.228-0.264-0.423-0.491-0.581c-0.229-0.158-0.517-0.294-0.863-0.401
			c-0.348-0.11-0.77-0.214-1.267-0.314c-0.854-0.179-1.698-0.391-2.532-0.639c-0.833-0.249-1.578-0.591-2.234-1.028
			c-0.655-0.436-1.187-1.003-1.593-1.697c-0.407-0.695-0.61-1.579-0.61-2.651c0-0.972,0.168-1.835,0.506-2.591
			c0.337-0.755,0.819-1.385,1.444-1.892c0.625-0.506,1.386-0.893,2.279-1.161s1.886-0.402,2.978-0.402
			c0.277,0,0.641,0.005,1.088,0.015c0.446,0.011,0.933,0.045,1.459,0.104c0.526,0.06,1.063,0.149,1.608,0.269
			s1.058,0.278,1.533,0.477c0.497,0.178,0.774,0.362,0.835,0.552c0.06,0.189,0.069,0.422,0.03,0.699l-0.418,1.758
			c-0.04,0.198-0.09,0.341-0.149,0.432c-0.06,0.09-0.14,0.149-0.238,0.179c-0.099,0.03-0.223,0.039-0.372,0.03
			c-0.148-0.01-0.323-0.026-0.521-0.045c-0.676-0.101-1.365-0.179-2.07-0.238s-1.515-0.089-2.428-0.089
			c-0.874,0-1.523,0.138-1.95,0.416c-0.427,0.279-0.641,0.735-0.641,1.37c0,0.319,0.044,0.576,0.134,0.773
			c0.089,0.2,0.238,0.368,0.448,0.508c0.208,0.14,0.48,0.253,0.819,0.342c0.337,0.09,0.753,0.185,1.25,0.283
			c0.854,0.179,1.698,0.387,2.531,0.627c0.835,0.237,1.58,0.574,2.234,1.012c0.655,0.436,1.187,1.018,1.594,1.743
			c0.406,0.724,0.61,1.672,0.61,2.844s-0.219,2.154-0.654,2.947c-0.438,0.796-1.02,1.431-1.743,1.907
			c-0.726,0.478-1.559,0.818-2.502,1.026C161.843,85.05,160.875,85.156,159.882,85.156z"/>
	</g>
	<g>
		<path fill="#43525A" d="M194.721,74.731c0,1.131-0.085,2.309-0.253,3.529c-0.169,1.22-0.551,2.344-1.147,3.366
			c-0.596,1.021-1.464,1.866-2.606,2.53c-1.142,0.666-2.685,0.999-4.63,0.999c-1.291,0-2.398-0.154-3.322-0.463
			c-0.923-0.308-1.697-0.72-2.322-1.235c-0.626-0.516-1.123-1.122-1.49-1.817c-0.367-0.694-0.65-1.429-0.848-2.203
			c-0.199-0.775-0.328-1.564-0.388-2.368s-0.089-1.583-0.089-2.338c0-0.576,0.034-1.227,0.104-1.951
			c0.068-0.726,0.208-1.449,0.416-2.174c0.209-0.725,0.501-1.434,0.879-2.13c0.377-0.695,0.878-1.311,1.505-1.847
			c0.625-0.537,1.394-0.968,2.308-1.295c0.912-0.329,2.005-0.492,3.276-0.492c1.866,0,3.36,0.293,4.481,0.879
			c1.122,0.585,1.991,1.351,2.606,2.293c0.616,0.944,1.023,2.005,1.222,3.188C194.621,72.381,194.721,73.559,194.721,74.731z
			 M189.865,75.058c0-2.124-0.264-3.678-0.788-4.661c-0.526-0.982-1.505-1.474-2.934-1.474c-1.332,0-2.249,0.5-2.756,1.503
			c-0.506,1.003-0.76,2.547-0.76,4.632c0,2.006,0.243,3.511,0.73,4.512c0.485,1.004,1.414,1.505,2.785,1.505
			c1.408,0,2.383-0.491,2.918-1.476C189.598,78.617,189.865,77.104,189.865,75.058z"/>
	</g>
	<g>
		<path fill="#43525A" d="M204.331,81.075c1.012,0,1.786-0.298,2.322-0.894c0.537-0.595,0.805-1.52,0.805-2.77l-0.029-11.646
			c0-0.198,0.049-0.361,0.148-0.49c0.099-0.13,0.277-0.195,0.536-0.195h3.425c0.278,0,0.452,0.076,0.521,0.225
			c0.07,0.149,0.104,0.302,0.104,0.461l-0.029,11.766c0,0.575-0.034,1.156-0.104,1.741c-0.069,0.587-0.224,1.188-0.462,1.803
			c-0.297,0.734-0.699,1.361-1.205,1.877s-1.083,0.938-1.729,1.265c-0.646,0.328-1.335,0.565-2.07,0.715
			c-0.734,0.148-1.479,0.225-2.232,0.225c-1.252,0.019-2.358-0.154-3.322-0.522c-0.963-0.367-1.771-0.888-2.428-1.563
			c-0.654-0.676-1.151-1.484-1.488-2.428c-0.338-0.943-0.506-1.981-0.506-3.112V65.765c0-0.198,0.045-0.361,0.134-0.49
			c0.09-0.13,0.263-0.195,0.521-0.195h3.425c0.278,0,0.451,0.076,0.521,0.225c0.07,0.149,0.104,0.302,0.104,0.461v11.646
			C201.292,79.854,202.306,81.075,204.331,81.075z"/>
	</g>
	<g>
		<path fill="#43525A" d="M227.299,68.864c-0.09,0.119-0.263,0.179-0.521,0.179h-4.407V84.23c0,0.16-0.035,0.309-0.104,0.448
			c-0.07,0.139-0.243,0.209-0.522,0.209h-3.425c-0.258,0-0.432-0.059-0.521-0.178c-0.09-0.119-0.134-0.279-0.134-0.479V69.042
			h-4.379c-0.277,0-0.456-0.06-0.536-0.179c-0.08-0.116-0.119-0.266-0.119-0.442V65.73c0-0.196,0.039-0.354,0.119-0.472
			c0.08-0.119,0.259-0.179,0.536-0.179h13.492c0.438,0,0.656,0.217,0.656,0.65v2.691C227.434,68.598,227.389,68.748,227.299,68.864z
			"/>
	</g>
	<g>
		<path fill="#43525A" d="M242.792,84.142c0.099,0.219,0.114,0.397,0.045,0.537c-0.069,0.138-0.214,0.208-0.432,0.208h-3.663
			c-0.298,0-0.541-0.046-0.73-0.135c-0.188-0.09-0.332-0.263-0.432-0.52l-3.038-6.883h-1.937v6.883c0,0.158-0.034,0.307-0.104,0.446
			c-0.068,0.138-0.242,0.208-0.521,0.208h-3.425c-0.279,0-0.462-0.059-0.551-0.178c-0.09-0.119-0.134-0.279-0.134-0.477V65.735
			c0-0.179,0.044-0.331,0.134-0.46c0.089-0.13,0.271-0.195,0.551-0.195h7.298c0.793,0,1.583,0.119,2.366,0.357
			c0.785,0.238,1.484,0.601,2.101,1.088c0.615,0.487,1.112,1.112,1.489,1.876c0.376,0.766,0.565,1.674,0.565,2.726
			c0,0.497-0.055,1.009-0.163,1.534c-0.11,0.526-0.294,1.028-0.551,1.505c-0.259,0.476-0.596,0.917-1.014,1.324
			c-0.417,0.407-0.923,0.75-1.519,1.027L242.792,84.142z M237.49,71.156c0-0.774-0.232-1.319-0.699-1.638
			c-0.467-0.316-1.048-0.476-1.743-0.476h-2.442v4.438h2.383c0.259,0,0.537-0.03,0.835-0.09s0.569-0.169,0.818-0.329
			c0.248-0.158,0.452-0.391,0.61-0.699S237.49,71.654,237.49,71.156z"/>
	</g>
	<g>
		<path fill="#43525A" d="M260.742,74.731c0,1.131-0.086,2.309-0.253,3.529c-0.17,1.22-0.551,2.344-1.147,3.366
			c-0.596,1.021-1.465,1.866-2.606,2.53c-1.143,0.666-2.685,0.999-4.631,0.999c-1.291,0-2.397-0.154-3.322-0.463
			c-0.923-0.308-1.696-0.72-2.321-1.235c-0.627-0.516-1.123-1.122-1.49-1.817c-0.368-0.694-0.65-1.429-0.849-2.203
			c-0.198-0.775-0.327-1.564-0.387-2.368s-0.09-1.583-0.09-2.338c0-0.576,0.034-1.227,0.104-1.951
			c0.069-0.726,0.209-1.449,0.417-2.174s0.501-1.434,0.878-2.13c0.378-0.695,0.879-1.311,1.505-1.847
			c0.625-0.537,1.394-0.968,2.309-1.295c0.912-0.329,2.004-0.492,3.276-0.492c1.865,0,3.359,0.293,4.481,0.879
			c1.122,0.585,1.99,1.351,2.606,2.293c0.615,0.944,1.022,2.005,1.222,3.188C260.642,72.381,260.742,73.559,260.742,74.731z
			 M255.887,75.058c0-2.124-0.264-3.678-0.789-4.661c-0.526-0.982-1.505-1.474-2.934-1.474c-1.331,0-2.249,0.5-2.755,1.503
			s-0.761,2.547-0.761,4.632c0,2.006,0.244,3.511,0.73,4.512c0.486,1.004,1.414,1.505,2.785,1.505c1.409,0,2.383-0.491,2.919-1.476
			C255.619,78.617,255.887,77.104,255.887,75.058z"/>
	</g>
	<g>
		<path fill="#43525A" d="M268.772,85.156c-0.317,0-0.714-0.017-1.19-0.046c-0.478-0.03-0.983-0.079-1.52-0.149
			c-0.536-0.068-1.077-0.162-1.624-0.281c-0.545-0.119-1.057-0.268-1.533-0.446c-0.496-0.199-0.773-0.389-0.833-0.567
			s-0.06-0.407,0-0.685l0.357-1.728c0.099-0.396,0.218-0.614,0.356-0.655s0.406-0.029,0.804,0.029
			c0.357,0.041,0.756,0.084,1.192,0.135c0.436,0.05,0.883,0.095,1.34,0.134c0.456,0.04,0.913,0.074,1.371,0.104
			c0.456,0.029,0.893,0.044,1.31,0.044c1.012,0,1.752-0.158,2.219-0.476c0.466-0.317,0.7-0.795,0.7-1.43
			c0-0.357-0.05-0.65-0.149-0.879c-0.1-0.228-0.264-0.423-0.491-0.581c-0.229-0.158-0.517-0.294-0.863-0.401
			c-0.348-0.11-0.77-0.214-1.267-0.314c-0.854-0.179-1.698-0.391-2.531-0.639c-0.834-0.249-1.578-0.591-2.234-1.028
			c-0.654-0.436-1.187-1.003-1.593-1.697c-0.407-0.695-0.61-1.579-0.61-2.651c0-0.972,0.168-1.835,0.507-2.591
			c0.337-0.755,0.818-1.385,1.443-1.892c0.625-0.506,1.386-0.893,2.279-1.161c0.893-0.269,1.886-0.402,2.978-0.402
			c0.277,0,0.641,0.005,1.088,0.015c0.447,0.011,0.933,0.045,1.459,0.104c0.526,0.06,1.063,0.149,1.609,0.269
			c0.545,0.119,1.057,0.278,1.532,0.477c0.497,0.178,0.774,0.362,0.836,0.552c0.059,0.189,0.068,0.422,0.029,0.699l-0.418,1.758
			c-0.039,0.198-0.09,0.341-0.149,0.432c-0.06,0.09-0.139,0.149-0.237,0.179c-0.1,0.03-0.224,0.039-0.373,0.03
			c-0.148-0.01-0.323-0.026-0.521-0.045c-0.675-0.101-1.365-0.179-2.07-0.238s-1.515-0.089-2.428-0.089
			c-0.874,0-1.523,0.138-1.95,0.416c-0.428,0.279-0.641,0.735-0.641,1.37c0,0.319,0.044,0.576,0.134,0.773
			c0.089,0.2,0.238,0.368,0.447,0.508s0.48,0.253,0.819,0.342c0.337,0.09,0.754,0.185,1.25,0.283
			c0.854,0.179,1.698,0.387,2.532,0.627c0.835,0.237,1.579,0.574,2.233,1.012c0.655,0.436,1.188,1.018,1.595,1.743
			c0.405,0.724,0.61,1.672,0.61,2.844s-0.22,2.154-0.655,2.947c-0.438,0.796-1.019,1.431-1.743,1.907
			c-0.726,0.478-1.559,0.818-2.502,1.026C270.733,85.05,269.767,85.156,268.772,85.156z"/>
	</g>
	<g>
		<path fill="#43525A" d="M126.73,22.42c0,0.343-0.049,0.695-0.145,1.054c-0.096,0.358-0.263,0.687-0.501,0.985
			c-0.239,0.298-0.558,0.541-0.958,0.728c-0.4,0.188-0.904,0.281-1.512,0.281h-1.992v3.819c0,0.172-0.084,0.258-0.254,0.258h-0.644
			c-0.179,0-0.269-0.086-0.269-0.258v-9.549c0-0.162,0.09-0.242,0.272-0.242h2.88c0.444,0,0.858,0.06,1.243,0.182
			c0.384,0.122,0.714,0.303,0.993,0.545c0.278,0.243,0.495,0.548,0.652,0.917C126.652,21.508,126.73,21.935,126.73,22.42z
			 M125.563,22.435c0-0.637-0.188-1.106-0.563-1.41c-0.375-0.303-0.873-0.455-1.491-0.455h-1.887v3.851h1.979
			c0.385,0,0.705-0.056,0.958-0.167c0.253-0.111,0.453-0.26,0.601-0.447c0.147-0.187,0.251-0.398,0.312-0.636
			C125.533,22.933,125.563,22.688,125.563,22.435z"/>
	</g>
	<g>
		<path fill="#43525A" d="M139.252,29.286c0.03,0.071,0.033,0.131,0.007,0.182c-0.025,0.05-0.073,0.076-0.144,0.076h-0.864
			c-0.081,0-0.146-0.013-0.197-0.038c-0.05-0.025-0.096-0.079-0.136-0.159l-1.94-4.032h-1.986v3.956
			c0,0.182-0.086,0.273-0.258,0.273h-0.651c-0.172,0-0.258-0.086-0.258-0.258v-9.549c0-0.162,0.086-0.242,0.258-0.242h3.092
			c0.374,0,0.738,0.053,1.091,0.159c0.354,0.106,0.667,0.273,0.94,0.5c0.272,0.228,0.49,0.523,0.651,0.887
			c0.162,0.364,0.243,0.798,0.243,1.304c0,0.283-0.036,0.568-0.106,0.856c-0.071,0.288-0.182,0.559-0.333,0.811
			s-0.351,0.478-0.599,0.675s-0.543,0.351-0.887,0.462L139.252,29.286z M137.873,22.321c0-0.354-0.056-0.647-0.167-0.875
			c-0.112-0.229-0.261-0.406-0.447-0.533c-0.188-0.127-0.399-0.216-0.637-0.266c-0.237-0.051-0.482-0.077-0.735-0.077h-1.895v3.699
			h1.865c0.222,0,0.452-0.023,0.689-0.068c0.237-0.046,0.455-0.137,0.651-0.274c0.198-0.137,0.359-0.335,0.485-0.594
			S137.873,22.737,137.873,22.321z"/>
	</g>
	<g>
		<path fill="#43525A" d="M153.139,24.375c0,0.596-0.035,1.207-0.105,1.833c-0.073,0.627-0.241,1.197-0.509,1.713
			s-0.663,0.937-1.187,1.266c-0.524,0.328-1.235,0.493-2.133,0.493c-0.595,0-1.102-0.076-1.521-0.228
			c-0.418-0.151-0.769-0.356-1.051-0.614s-0.507-0.561-0.673-0.909c-0.167-0.349-0.295-0.72-0.386-1.115
			c-0.09-0.394-0.148-0.797-0.174-1.212c-0.025-0.414-0.038-0.823-0.038-1.227c0-0.313,0.015-0.654,0.045-1.024
			c0.03-0.369,0.09-0.737,0.181-1.106s0.225-0.728,0.401-1.077c0.176-0.348,0.406-0.654,0.688-0.917
			c0.282-0.263,0.633-0.475,1.051-0.637c0.419-0.162,0.916-0.242,1.491-0.242c0.858,0,1.545,0.146,2.065,0.439
			c0.52,0.293,0.915,0.674,1.188,1.145c0.271,0.469,0.449,1.002,0.536,1.599C153.096,23.153,153.139,23.759,153.139,24.375z
			 M151.97,24.519c0-0.656-0.041-1.24-0.127-1.754c-0.086-0.515-0.235-0.946-0.446-1.294c-0.214-0.348-0.497-0.613-0.85-0.794
			c-0.354-0.182-0.798-0.272-1.334-0.272c-0.505,0-0.927,0.096-1.265,0.288c-0.339,0.191-0.609,0.467-0.811,0.825
			c-0.203,0.358-0.347,0.789-0.432,1.293c-0.086,0.505-0.129,1.074-0.129,1.71c0,0.615,0.038,1.172,0.114,1.671
			c0.076,0.5,0.212,0.929,0.409,1.287s0.465,0.636,0.804,0.832c0.338,0.197,0.775,0.295,1.311,0.295c0.546,0,0.996-0.093,1.349-0.28
			c0.353-0.187,0.637-0.453,0.849-0.802c0.214-0.348,0.36-0.776,0.441-1.285C151.93,25.727,151.97,25.155,151.97,24.519z"/>
	</g>
	<g>
		<path fill="#43525A" d="M162.682,29.006c-0.429,0.449-1.159,0.675-2.19,0.675c-0.323,0-0.636-0.023-0.939-0.068
			c-0.303-0.045-0.606-0.129-0.909-0.25c-0.122-0.05-0.195-0.104-0.221-0.159c-0.024-0.055-0.027-0.124-0.006-0.205l0.105-0.424
			c0.02-0.07,0.049-0.119,0.084-0.144s0.099-0.028,0.189-0.008c0.222,0.031,0.487,0.061,0.795,0.091
			c0.309,0.03,0.568,0.045,0.781,0.045c0.353,0,0.644-0.033,0.871-0.099s0.406-0.164,0.538-0.296
			c0.132-0.131,0.223-0.293,0.272-0.485c0.05-0.191,0.076-0.414,0.076-0.667v-7.246c0-0.111,0.022-0.184,0.068-0.22
			c0.045-0.035,0.114-0.053,0.204-0.053h0.651c0.092,0,0.159,0.018,0.206,0.053c0.044,0.036,0.067,0.109,0.067,0.22v7.352
			C163.326,27.927,163.11,28.556,162.682,29.006z"/>
	</g>
	<g>
		<path fill="#43525A" d="M176.152,29.499c-0.04,0.03-0.106,0.045-0.197,0.045h-5.309c-0.18,0-0.27-0.081-0.27-0.242v-9.549
			c0-0.172,0.09-0.258,0.27-0.258h5.218c0.172,0,0.257,0.08,0.257,0.239v0.583c0,0.169-0.09,0.254-0.271,0.254h-4.306v3.214h3.866
			c0.172,0,0.257,0.081,0.257,0.242v0.591c0,0.162-0.085,0.242-0.257,0.242h-3.866v3.607h4.426c0.163,0,0.244,0.086,0.244,0.258
			v0.577C176.214,29.402,176.192,29.468,176.152,29.499z"/>
	</g>
	<g>
		<path fill="#43525A" d="M188.324,20.57h-2.547v8.715c0,0.173-0.081,0.259-0.242,0.259h-0.651c-0.182,0-0.272-0.086-0.272-0.259
			V20.57h-2.532c-0.181,0-0.272-0.084-0.272-0.254v-0.583c0-0.159,0.086-0.239,0.258-0.239h6.274c0.172,0,0.259,0.08,0.259,0.239
			v0.583C188.598,20.486,188.507,20.57,188.324,20.57z"/>
	</g>
	<g>
		<path fill="#43525A" d="M201.893,24.375c0,0.596-0.035,1.207-0.105,1.833c-0.071,0.627-0.239,1.197-0.508,1.713
			c-0.268,0.516-0.663,0.937-1.188,1.266c-0.523,0.328-1.235,0.493-2.133,0.493c-0.596,0-1.102-0.076-1.52-0.228
			c-0.42-0.151-0.771-0.356-1.053-0.614c-0.281-0.258-0.506-0.561-0.673-0.909c-0.166-0.349-0.295-0.72-0.386-1.115
			c-0.091-0.394-0.148-0.797-0.174-1.212c-0.024-0.414-0.038-0.823-0.038-1.227c0-0.313,0.016-0.654,0.046-1.024
			c0.029-0.369,0.091-0.737,0.182-1.106c0.09-0.369,0.225-0.728,0.4-1.077c0.177-0.348,0.405-0.654,0.688-0.917
			c0.283-0.263,0.633-0.475,1.052-0.637c0.418-0.162,0.914-0.242,1.489-0.242c0.858,0,1.546,0.146,2.065,0.439
			c0.52,0.293,0.916,0.674,1.188,1.145c0.272,0.469,0.451,1.002,0.537,1.599C201.85,23.153,201.893,23.759,201.893,24.375z
			 M200.725,24.519c0-0.656-0.042-1.24-0.128-1.754c-0.086-0.515-0.234-0.946-0.447-1.294c-0.212-0.348-0.495-0.613-0.85-0.794
			c-0.353-0.182-0.798-0.272-1.333-0.272c-0.506,0-0.928,0.096-1.267,0.288c-0.338,0.191-0.608,0.467-0.811,0.825
			c-0.201,0.358-0.346,0.789-0.432,1.293c-0.086,0.505-0.128,1.074-0.128,1.71c0,0.615,0.037,1.172,0.113,1.671
			c0.076,0.5,0.211,0.929,0.409,1.287c0.197,0.358,0.464,0.636,0.804,0.832c0.338,0.197,0.775,0.295,1.311,0.295
			c0.546,0,0.995-0.093,1.35-0.28c0.353-0.187,0.636-0.453,0.849-0.802c0.212-0.348,0.358-0.776,0.439-1.285
			C200.685,25.727,200.725,25.155,200.725,24.519z"/>
	</g>
	<g>
		<path fill="#43525A" d="M218.857,26.755c0,0.545-0.091,1.005-0.273,1.379c-0.182,0.374-0.432,0.674-0.75,0.901
			c-0.319,0.228-0.688,0.392-1.106,0.493c-0.42,0.101-0.862,0.152-1.326,0.152c-0.213,0-0.45-0.01-0.713-0.031
			c-0.263-0.02-0.525-0.048-0.788-0.083c-0.263-0.036-0.518-0.079-0.766-0.129c-0.248-0.05-0.452-0.111-0.614-0.182
			c-0.111-0.05-0.176-0.101-0.196-0.151c-0.021-0.05-0.021-0.111,0-0.182l0.105-0.424c0.031-0.111,0.116-0.162,0.259-0.152
			c0.212,0.03,0.443,0.058,0.696,0.083s0.502,0.048,0.75,0.068c0.248,0.02,0.48,0.036,0.698,0.045
			c0.217,0.01,0.402,0.016,0.554,0.016c0.758,0,1.33-0.141,1.72-0.424c0.389-0.283,0.583-0.683,0.583-1.197
			c0-0.344-0.032-0.629-0.099-0.856c-0.065-0.228-0.179-0.414-0.341-0.561c-0.161-0.146-0.379-0.263-0.651-0.349
			c-0.273-0.086-0.611-0.164-1.016-0.235c-0.455-0.07-0.879-0.159-1.273-0.265c-0.394-0.105-0.737-0.252-1.03-0.439
			c-0.293-0.187-0.523-0.437-0.689-0.75c-0.167-0.313-0.251-0.723-0.251-1.228c0-0.93,0.277-1.637,0.834-2.122
			c0.556-0.485,1.354-0.728,2.395-0.728c0.152,0,0.339,0.005,0.561,0.016c0.224,0.01,0.46,0.03,0.713,0.06
			c0.253,0.03,0.505,0.071,0.758,0.122c0.253,0.05,0.48,0.116,0.683,0.197c0.11,0.041,0.177,0.088,0.197,0.144
			c0.021,0.055,0.021,0.118,0,0.189l-0.092,0.409c-0.021,0.05-0.048,0.096-0.083,0.136c-0.035,0.041-0.104,0.056-0.204,0.045
			c-0.334-0.05-0.729-0.098-1.183-0.143c-0.455-0.046-0.904-0.068-1.35-0.068c-0.394,0-0.725,0.041-0.993,0.121
			c-0.268,0.081-0.479,0.195-0.636,0.341c-0.157,0.147-0.268,0.326-0.334,0.538c-0.065,0.212-0.098,0.445-0.098,0.697
			c0,0.303,0.038,0.543,0.113,0.72c0.076,0.177,0.201,0.32,0.372,0.432c0.172,0.111,0.396,0.2,0.669,0.265
			c0.274,0.066,0.609,0.134,1.004,0.205c0.436,0.081,0.849,0.172,1.238,0.272c0.391,0.102,0.729,0.256,1.019,0.463
			s0.518,0.484,0.684,0.833C218.773,25.747,218.857,26.199,218.857,26.755z"/>
	</g>
	<g>
		<path fill="#43525A" d="M232.91,24.375c0,0.596-0.035,1.207-0.105,1.833c-0.072,0.627-0.24,1.197-0.508,1.713
			s-0.663,0.937-1.188,1.266c-0.523,0.328-1.235,0.493-2.132,0.493c-0.596,0-1.102-0.076-1.52-0.228
			c-0.42-0.151-0.771-0.356-1.053-0.614s-0.507-0.561-0.673-0.909c-0.166-0.349-0.295-0.72-0.386-1.115
			c-0.091-0.394-0.148-0.797-0.175-1.212c-0.024-0.414-0.038-0.823-0.038-1.227c0-0.313,0.017-0.654,0.047-1.024
			c0.029-0.369,0.09-0.737,0.181-1.106s0.225-0.728,0.4-1.077c0.178-0.348,0.406-0.654,0.689-0.917
			c0.282-0.263,0.633-0.475,1.051-0.637c0.419-0.162,0.915-0.242,1.49-0.242c0.857,0,1.545,0.146,2.064,0.439
			c0.521,0.293,0.917,0.674,1.188,1.145c0.272,0.469,0.45,1.002,0.537,1.599C232.866,23.153,232.91,23.759,232.91,24.375z
			 M231.742,24.519c0-0.656-0.042-1.24-0.129-1.754c-0.085-0.515-0.233-0.946-0.446-1.294c-0.212-0.348-0.495-0.613-0.85-0.794
			c-0.354-0.182-0.799-0.272-1.333-0.272c-0.506,0-0.929,0.096-1.267,0.288s-0.608,0.467-0.811,0.825
			c-0.201,0.358-0.347,0.789-0.432,1.293c-0.087,0.505-0.129,1.074-0.129,1.71c0,0.615,0.038,1.172,0.114,1.671
			c0.075,0.5,0.211,0.929,0.408,1.287c0.198,0.358,0.465,0.636,0.804,0.832c0.339,0.197,0.775,0.295,1.312,0.295
			c0.545,0,0.994-0.093,1.35-0.28c0.353-0.187,0.636-0.453,0.848-0.802c0.213-0.348,0.359-0.776,0.44-1.285
			C231.701,25.727,231.742,25.155,231.742,24.519z"/>
	</g>
	<g>
		<path fill="#43525A" d="M243.354,19.388c0.153,0,0.34,0.005,0.562,0.015s0.46,0.03,0.712,0.061
			c0.253,0.031,0.506,0.071,0.758,0.121c0.253,0.051,0.48,0.117,0.684,0.197c0.11,0.051,0.176,0.101,0.196,0.151
			c0.02,0.051,0.02,0.112,0,0.182l-0.091,0.425c-0.021,0.05-0.049,0.096-0.084,0.136c-0.035,0.041-0.103,0.051-0.204,0.031
			c-0.333-0.051-0.726-0.099-1.175-0.144s-0.901-0.068-1.357-0.068c-0.586,0-1.05,0.111-1.394,0.333
			c-0.344,0.223-0.606,0.523-0.789,0.902c-0.182,0.379-0.298,0.819-0.348,1.319c-0.052,0.5-0.076,1.028-0.076,1.583
			c0,0.505,0.03,0.996,0.091,1.471c0.062,0.475,0.185,0.894,0.371,1.258c0.188,0.364,0.453,0.654,0.797,0.871
			c0.343,0.217,0.793,0.326,1.348,0.326c0.466,0,0.911-0.023,1.334-0.068c0.426-0.045,0.819-0.093,1.183-0.144
			c0.111-0.02,0.185-0.007,0.22,0.038s0.063,0.093,0.084,0.144l0.075,0.394c0.021,0.082,0.023,0.147,0.009,0.198
			c-0.017,0.051-0.074,0.096-0.175,0.136c-0.183,0.082-0.399,0.147-0.652,0.198c-0.253,0.05-0.507,0.091-0.766,0.121
			c-0.257,0.03-0.502,0.053-0.735,0.068c-0.232,0.015-0.423,0.022-0.576,0.022c-0.798,0-1.446-0.139-1.947-0.417
			c-0.5-0.277-0.895-0.649-1.181-1.114s-0.48-1-0.582-1.606c-0.104-0.606-0.154-1.238-0.154-1.896c0-0.667,0.049-1.316,0.146-1.947
			c0.097-0.632,0.284-1.19,0.561-1.675c0.276-0.485,0.667-0.876,1.172-1.175C241.873,19.537,242.536,19.388,243.354,19.388z"/>
	</g>
	<g>
		<path fill="#43525A" d="M253.543,29.544h-0.667c-0.182,0-0.273-0.086-0.273-0.258v-9.519c0-0.111,0.023-0.184,0.069-0.22
			c0.044-0.035,0.113-0.053,0.204-0.053h0.667c0.081,0,0.144,0.018,0.189,0.053c0.045,0.036,0.067,0.109,0.067,0.22v9.519
			C253.8,29.458,253.715,29.544,253.543,29.544z"/>
	</g>
	<g>
		<path fill="#43525A" d="M261.26,29.302c-0.03,0.101-0.071,0.167-0.121,0.197c-0.052,0.03-0.116,0.045-0.198,0.045h-0.787
			c-0.143,0-0.183-0.081-0.122-0.242l3.168-9.565c0.041-0.152,0.137-0.228,0.288-0.228h0.849c0.102,0,0.169,0.021,0.206,0.061
			c0.035,0.041,0.062,0.096,0.082,0.167l3.168,9.595c0.031,0.142-0.01,0.212-0.12,0.212h-0.925c-0.081,0-0.139-0.015-0.175-0.045
			s-0.063-0.081-0.083-0.152l-0.743-2.485h-3.698L261.26,29.302z M264.655,23.253l-0.728-2.456h-0.047l-0.711,2.411l-0.773,2.576
			h3.017L264.655,23.253z"/>
	</g>
	<g>
		<path fill="#43525A" d="M279.603,29.544h-5.456c-0.183,0-0.273-0.081-0.273-0.242v-9.535c0-0.111,0.023-0.184,0.069-0.22
			c0.044-0.035,0.107-0.053,0.189-0.053h0.665c0.081,0,0.143,0.018,0.183,0.053c0.041,0.036,0.062,0.109,0.062,0.22v8.7h4.547
			c0.172,0,0.258,0.086,0.258,0.258v0.577C279.846,29.463,279.765,29.544,279.603,29.544z"/>
	</g>
</g>
</svg>
