<?xml version="1.0" encoding="utf-8"?>
<!-- Generator: Adobe Illustrator 16.0.0, SVG Export Plug-In . SVG Version: 6.00 Build 0)  -->
<!DOCTYPE svg PUBLIC "-//W3C//DTD SVG 1.1//EN" "http://www.w3.org/Graphics/SVG/1.1/DTD/svg11.dtd">
<svg version="1.1" id="Layer_1" xmlns="http://www.w3.org/2000/svg" xmlns:xlink="http://www.w3.org/1999/xlink" x="0px" y="0px"
	 width="300px" height="110px" viewBox="0 -5.085 300 110" enable-background="new 0 -5.085 300 110" xml:space="preserve">
<g>
	<path fill="#EC1C24" d="M55.322,41.554c25.371,30.969-29.757,38.69-22.96,0.966c0.86-4.795-3.681-5.5-4.646-2.807
		c-12.911,36.061,14.067,45.664,29.038,61.629c21.768-27.338,16.958-46.99,2.82-60.839C57.028,38.007,53.643,39.516,55.322,41.554"
		/>
	<path fill="#EC1C24" d="M55.829,52.659c0,5.084-4.125,9.209-9.209,9.209c-5.085,0-9.21-4.125-9.21-9.209
		c0-5.075,4.125-9.201,9.21-9.201C51.704,43.458,55.829,47.583,55.829,52.659"/>
	<path fill="#0094D9" d="M60.031,27.642c-1.516-5.338,4.203-7.115,7.122-2.666c14.836,22.564,44.607,0.832,33.48-20.28
		c-1.509-2.863,0.832-5.86,4.456-2.666c6.318,5.578,10.577,14.173,10.577,24.976c0,33.056-43.986,66.91-55.636,77.149
		C97.545,57.129,65.165,45.728,60.031,27.642"/>
	<path fill="#0094D9" d="M84.071,0.775c-6.283,0-11.374,5.091-11.374,11.367c0,6.275,5.091,11.367,11.374,11.367
		c6.282,0,11.374-5.091,11.374-11.367C95.445,5.867,90.353,0.775,84.071,0.775"/>
	<path fill="#EDDD10" d="M40.633,33.297c-3.166-4.739-14.223-17.248-9.259-25.343c2.87-4.689,11.396-4.09,21.268,1.438
		c2.355,1.312,5.388-1.425,3.575-3.096C32.362-15.683,4.396-1.001,4.396,27.007c0,14.308,8.25,28.761,18.538,41.391
		C6.511,28.495,19.571,20.696,36.593,37.711C39.061,40.186,43.122,37.006,40.633,33.297"/>
	<path fill="#8BC53F" d="M45.986,11.719c-4.287,0-7.771,3.477-7.771,7.757c0,4.287,3.484,7.771,7.771,7.771s7.756-3.483,7.756-7.771
		C53.741,15.196,50.273,11.719,45.986,11.719"/>
	<path fill="#00ADEE" d="M105.09,2.031c-3.624-3.194-5.965-0.198-4.456,2.666c11.127,21.112-18.645,42.844-33.48,20.28
		c-2.919-4.45-8.638-2.672-7.122,2.666c1.326,4.654,4.457,8.871,7.729,13.37c21.225,3.152,39.968-1.199,47.767-10.768
		c0.085-1.079,0.141-2.165,0.141-3.237C115.667,16.204,111.408,7.608,105.09,2.031"/>
	<path fill="#00ADEE" d="M84.071,23.509c6.282,0,11.374-5.091,11.374-11.367c0-6.276-5.092-11.367-11.374-11.367
		c-6.283,0-11.374,5.091-11.374,11.367C72.697,18.418,77.787,23.509,84.071,23.509"/>
	<path fill="#FFF100" d="M53.741,19.476c0-4.28-3.469-7.757-7.756-7.757s-7.771,3.477-7.771,7.757c0,4.287,3.484,7.771,7.771,7.771
		S53.741,23.763,53.741,19.476"/>
	<path fill="#FFF100" d="M13.16,3.639c0.769,10.521,11.275,21.521,27.071,29.073c-3.597-5.112-13.638-16.973-8.857-24.757
		c2.87-4.689,11.396-4.09,21.268,1.438c2.355,1.312,5.388-1.425,3.575-3.096C40.64-8.053,23.315-6.77,13.16,3.639"/>
	<g>
		<path fill="#43525A" d="M140.525,41.061c-0.087,0.277-0.199,0.467-0.337,0.57c-0.139,0.104-0.329,0.156-0.571,0.156h-2.878
			c-0.19,0-0.32-0.039-0.389-0.117c-0.069-0.078-0.061-0.263,0.026-0.558l5.004-15.817c0.086-0.242,0.19-0.428,0.312-0.558
			c0.12-0.129,0.354-0.194,0.7-0.194h3.267c0.363,0,0.601,0.069,0.713,0.208c0.112,0.139,0.212,0.329,0.299,0.57l5.211,15.843
			c0.053,0.207,0.061,0.363,0.026,0.466c-0.035,0.104-0.147,0.156-0.337,0.156h-3.216c-0.294,0-0.492-0.065-0.596-0.194
			c-0.104-0.13-0.199-0.333-0.285-0.609l-0.856-3.086h-5.159L140.525,41.061z M144.933,31.896l-0.83-3.177h-0.13l-0.855,3.151
			l-0.778,2.891h3.371L144.933,31.896z"/>
	</g>
	<g>
		<path fill="#43525A" d="M160.746,34.293l1.971-4.071l2.516-5.03c0.12-0.208,0.25-0.367,0.389-0.48
			c0.139-0.112,0.38-0.168,0.727-0.168h2.126c0.241,0,0.389,0.065,0.44,0.194c0.052,0.13,0.078,0.255,0.078,0.376v16.103
			c0,0.138-0.026,0.268-0.078,0.389c-0.052,0.121-0.199,0.182-0.44,0.182h-2.904c-0.225,0-0.376-0.052-0.454-0.156
			c-0.077-0.104-0.116-0.242-0.116-0.415v-7.935l-0.078-0.026l-0.907,2.022l-1.634,3.345c-0.121,0.208-0.259,0.372-0.415,0.493
			c-0.155,0.121-0.38,0.182-0.674,0.182h-1.271c-0.312,0-0.54-0.056-0.688-0.168c-0.146-0.112-0.281-0.263-0.401-0.454l-1.686-3.475
			l-0.907-1.971l-0.053,0.026v7.96c0,0.138-0.03,0.268-0.09,0.389c-0.062,0.121-0.212,0.182-0.454,0.182h-2.904
			c-0.207,0-0.35-0.052-0.428-0.156c-0.078-0.104-0.116-0.242-0.116-0.415V25.114c0-0.155,0.038-0.289,0.116-0.402
			c0.078-0.112,0.221-0.168,0.428-0.168h2.23c0.345,0,0.592,0.048,0.738,0.143c0.146,0.095,0.281,0.255,0.402,0.48l2.515,5.108
			l1.919,4.019H160.746z"/>
	</g>
	<g>
		<path fill="#43525A" d="M173.544,41.061c-0.087,0.277-0.199,0.467-0.337,0.57c-0.139,0.104-0.329,0.156-0.571,0.156h-2.878
			c-0.19,0-0.32-0.039-0.389-0.117c-0.069-0.078-0.061-0.263,0.026-0.558l5.004-15.817c0.086-0.242,0.19-0.428,0.312-0.558
			c0.12-0.129,0.354-0.194,0.7-0.194h3.267c0.363,0,0.601,0.069,0.713,0.208c0.112,0.139,0.212,0.329,0.299,0.57l5.211,15.843
			c0.053,0.207,0.061,0.363,0.026,0.466c-0.035,0.104-0.147,0.156-0.337,0.156h-3.216c-0.294,0-0.492-0.065-0.596-0.194
			c-0.104-0.13-0.199-0.333-0.285-0.609l-0.856-3.086h-5.159L173.544,41.061z M177.952,31.896l-0.83-3.177h-0.13l-0.855,3.151
			l-0.778,2.891h3.371L177.952,31.896z"/>
	</g>
	<g>
		<path fill="#43525A" d="M185.413,25.141c0-0.173,0.039-0.315,0.116-0.428c0.078-0.112,0.221-0.168,0.428-0.168h3.034
			c0.242,0,0.393,0.065,0.454,0.194c0.06,0.13,0.09,0.264,0.09,0.402v16.076c0,0.138-0.03,0.268-0.09,0.389
			c-0.062,0.121-0.212,0.182-0.454,0.182h-3.034c-0.207,0-0.35-0.052-0.428-0.156c-0.077-0.104-0.116-0.242-0.116-0.415V25.141z"/>
	</g>
	<g>
		<path fill="#43525A" d="M199.246,31.986c0.225,0,0.371,0.039,0.44,0.117s0.104,0.203,0.104,0.376v1.997
			c0,0.19-0.034,0.329-0.104,0.415c-0.069,0.087-0.216,0.13-0.44,0.13h-8.09c-0.363,0-0.545-0.182-0.545-0.544v-1.971
			c0-0.346,0.182-0.519,0.545-0.519H199.246z"/>
	</g>
	<g>
		<path fill="#43525A" d="M205.437,31.363l1.659,5.627h0.13l1.607-5.679l1.737-5.964c0.087-0.259,0.203-0.458,0.351-0.596
			c0.146-0.138,0.367-0.208,0.661-0.208h3.008c0.259,0,0.393,0.069,0.401,0.208c0.009,0.139-0.013,0.285-0.064,0.441l-5.264,15.843
			c-0.087,0.225-0.194,0.406-0.324,0.544c-0.13,0.139-0.394,0.208-0.791,0.208h-2.93c-0.346,0-0.597-0.061-0.752-0.182
			c-0.155-0.121-0.269-0.302-0.337-0.544l-5.238-15.869c-0.086-0.19-0.104-0.346-0.052-0.467c0.052-0.121,0.208-0.182,0.467-0.182
			h2.774c0.346,0,0.592,0.052,0.739,0.156c0.146,0.104,0.255,0.294,0.324,0.57L205.437,31.363z"/>
	</g>
	<g>
		<path fill="#43525A" d="M229.591,32.945c0,0.985-0.073,2.009-0.221,3.072c-0.146,1.063-0.479,2.04-0.998,2.93
			c-0.519,0.891-1.274,1.625-2.269,2.204s-2.338,0.869-4.032,0.869c-1.124,0-2.087-0.134-2.891-0.402
			c-0.804-0.268-1.479-0.626-2.022-1.076c-0.545-0.449-0.978-0.977-1.297-1.582c-0.32-0.605-0.566-1.245-0.739-1.919
			s-0.285-1.361-0.337-2.062c-0.052-0.7-0.078-1.378-0.078-2.035c0-0.501,0.03-1.067,0.091-1.699
			c0.061-0.63,0.182-1.261,0.363-1.893c0.182-0.631,0.437-1.249,0.765-1.854c0.328-0.605,0.766-1.141,1.31-1.607
			c0.545-0.467,1.215-0.843,2.01-1.128c0.795-0.286,1.746-0.428,2.853-0.428c1.624,0,2.925,0.255,3.902,0.765
			c0.977,0.51,1.732,1.176,2.269,1.997c0.535,0.821,0.89,1.746,1.063,2.774C229.504,30.901,229.591,31.925,229.591,32.945z
			 M225.365,33.23c0-1.85-0.229-3.202-0.687-4.058c-0.459-0.855-1.31-1.283-2.555-1.283c-1.158,0-1.957,0.437-2.398,1.309
			c-0.44,0.873-0.661,2.217-0.661,4.032c0,1.746,0.212,3.056,0.636,3.928c0.423,0.873,1.231,1.31,2.424,1.31
			c1.228,0,2.074-0.428,2.541-1.284C225.131,36.329,225.365,35.011,225.365,33.23z"/>
	</g>
	<g>
		<path fill="#43525A" d="M236.584,42.021c-0.276,0-0.622-0.013-1.037-0.039s-0.855-0.069-1.322-0.129
			c-0.467-0.061-0.938-0.143-1.413-0.247c-0.476-0.104-0.921-0.233-1.336-0.389c-0.432-0.173-0.674-0.337-0.726-0.493
			c-0.052-0.156-0.052-0.354,0-0.597l0.312-1.504c0.086-0.345,0.189-0.536,0.311-0.57c0.121-0.034,0.354-0.026,0.7,0.026
			c0.312,0.035,0.657,0.074,1.037,0.117c0.38,0.043,0.77,0.083,1.167,0.117c0.397,0.035,0.795,0.065,1.192,0.091
			s0.778,0.039,1.142,0.039c0.881,0,1.525-0.138,1.932-0.415c0.406-0.276,0.609-0.691,0.609-1.245c0-0.311-0.044-0.566-0.13-0.765
			c-0.087-0.198-0.229-0.367-0.428-0.505c-0.199-0.138-0.45-0.255-0.752-0.35c-0.303-0.095-0.67-0.186-1.103-0.272
			c-0.743-0.155-1.478-0.341-2.203-0.557c-0.727-0.216-1.375-0.514-1.945-0.895s-1.033-0.873-1.387-1.478
			c-0.354-0.605-0.532-1.375-0.532-2.308c0-0.847,0.147-1.599,0.441-2.256s0.713-1.206,1.258-1.647
			c0.544-0.44,1.205-0.778,1.983-1.011c0.777-0.233,1.642-0.35,2.593-0.35c0.242,0,0.558,0.004,0.946,0.013
			c0.389,0.009,0.813,0.039,1.271,0.091s0.925,0.129,1.4,0.233c0.476,0.104,0.92,0.242,1.335,0.415
			c0.433,0.155,0.675,0.315,0.727,0.479c0.052,0.165,0.061,0.368,0.025,0.609l-0.362,1.53c-0.035,0.173-0.078,0.298-0.13,0.376
			s-0.121,0.13-0.208,0.156c-0.086,0.026-0.194,0.035-0.324,0.026c-0.129-0.009-0.28-0.021-0.453-0.039
			c-0.588-0.086-1.188-0.156-1.803-0.208c-0.613-0.052-1.317-0.078-2.112-0.078c-0.762,0-1.327,0.121-1.699,0.363
			c-0.371,0.243-0.557,0.64-0.557,1.193c0,0.277,0.038,0.501,0.116,0.674s0.207,0.32,0.389,0.441s0.419,0.22,0.713,0.298
			c0.294,0.078,0.657,0.16,1.09,0.247c0.743,0.155,1.478,0.337,2.204,0.544c0.726,0.208,1.374,0.501,1.944,0.881
			c0.57,0.381,1.032,0.886,1.387,1.517c0.354,0.631,0.532,1.457,0.532,2.476c0,1.021-0.19,1.876-0.57,2.567
			c-0.381,0.691-0.887,1.245-1.518,1.659c-0.631,0.415-1.356,0.713-2.178,0.895C238.291,41.93,237.448,42.021,236.584,42.021z"/>
	</g>
	<g>
		<path fill="#43525A" d="M259.029,38.468c0.882,0,1.557-0.259,2.022-0.778c0.467-0.519,0.7-1.323,0.7-2.412l-0.025-10.138
			c0-0.173,0.043-0.315,0.13-0.428c0.086-0.112,0.241-0.168,0.466-0.168h2.982c0.242,0,0.393,0.065,0.454,0.194
			c0.06,0.13,0.091,0.264,0.091,0.402l-0.026,10.242c0,0.502-0.03,1.007-0.091,1.517c-0.061,0.51-0.194,1.033-0.402,1.569
			c-0.259,0.64-0.608,1.184-1.05,1.633c-0.44,0.45-0.942,0.817-1.504,1.102s-1.163,0.493-1.802,0.623
			c-0.64,0.129-1.288,0.194-1.945,0.194c-1.089,0.017-2.053-0.134-2.891-0.454c-0.839-0.32-1.543-0.773-2.113-1.361
			c-0.57-0.587-1.003-1.292-1.297-2.113c-0.294-0.821-0.44-1.725-0.44-2.71V25.141c0-0.173,0.039-0.315,0.116-0.428
			c0.078-0.112,0.229-0.168,0.454-0.168h2.982c0.241,0,0.393,0.065,0.453,0.194c0.061,0.13,0.091,0.264,0.091,0.402v10.138
			C256.384,37.405,257.266,38.468,259.029,38.468z"/>
	</g>
	<g>
		<path fill="#43525A" d="M271.757,32.141h-0.078v9.102c0,0.139-0.035,0.264-0.104,0.376c-0.069,0.112-0.217,0.168-0.441,0.168
			h-2.878c-0.397,0-0.597-0.182-0.597-0.544V25.141c0-0.156,0.043-0.29,0.13-0.402c0.087-0.112,0.233-0.168,0.441-0.168h2.126
			c0.397,0,0.67,0.069,0.816,0.208c0.146,0.139,0.289,0.32,0.428,0.544c0.139,0.225,0.363,0.571,0.675,1.037
			c0.311,0.467,0.661,0.999,1.05,1.595c0.389,0.597,0.795,1.219,1.219,1.867c0.423,0.648,0.83,1.271,1.219,1.867
			c0.389,0.597,0.734,1.128,1.037,1.595c0.302,0.467,0.522,0.804,0.661,1.011c0.017,0,0.03-0.004,0.039-0.013
			s0.021-0.013,0.039-0.013v-9.101c0-0.138,0.034-0.272,0.104-0.402c0.068-0.13,0.225-0.195,0.467-0.195h2.878
			c0.207,0,0.35,0.052,0.428,0.156c0.078,0.104,0.117,0.251,0.117,0.441v16.076c0,0.173-0.039,0.307-0.117,0.402
			c-0.078,0.095-0.221,0.143-0.428,0.143h-2.126c-0.294,0-0.519-0.052-0.675-0.156c-0.155-0.104-0.302-0.25-0.44-0.44
			c-0.657-0.985-1.313-1.966-1.971-2.943c-0.657-0.976-1.313-1.958-1.971-2.943L271.757,32.141z"/>
	</g>
	<g>
		<path fill="#43525A" d="M288.811,42.021c-0.276,0-0.622-0.013-1.037-0.039s-0.855-0.069-1.322-0.129
			c-0.467-0.061-0.938-0.143-1.413-0.247c-0.476-0.104-0.921-0.233-1.336-0.389c-0.432-0.173-0.674-0.337-0.726-0.493
			c-0.052-0.156-0.052-0.354,0-0.597l0.312-1.504c0.086-0.345,0.189-0.536,0.311-0.57c0.121-0.034,0.354-0.026,0.7,0.026
			c0.312,0.035,0.657,0.074,1.037,0.117c0.38,0.043,0.77,0.083,1.167,0.117c0.397,0.035,0.795,0.065,1.192,0.091
			s0.778,0.039,1.142,0.039c0.881,0,1.525-0.138,1.932-0.415c0.406-0.276,0.609-0.691,0.609-1.245c0-0.311-0.044-0.566-0.13-0.765
			c-0.087-0.198-0.229-0.367-0.428-0.505c-0.199-0.138-0.45-0.255-0.752-0.35c-0.303-0.095-0.67-0.186-1.103-0.272
			c-0.743-0.155-1.478-0.341-2.203-0.557c-0.727-0.216-1.375-0.514-1.945-0.895s-1.033-0.873-1.387-1.478
			c-0.354-0.605-0.532-1.375-0.532-2.308c0-0.847,0.147-1.599,0.441-2.256s0.713-1.206,1.258-1.647
			c0.544-0.44,1.205-0.778,1.983-1.011c0.777-0.233,1.642-0.35,2.593-0.35c0.242,0,0.558,0.004,0.946,0.013
			c0.389,0.009,0.813,0.039,1.271,0.091s0.925,0.129,1.4,0.233c0.476,0.104,0.92,0.242,1.335,0.415
			c0.433,0.155,0.675,0.315,0.727,0.479c0.052,0.165,0.061,0.368,0.025,0.609l-0.362,1.53c-0.035,0.173-0.078,0.298-0.13,0.376
			s-0.121,0.13-0.208,0.156c-0.086,0.026-0.194,0.035-0.324,0.026c-0.129-0.009-0.28-0.021-0.453-0.039
			c-0.588-0.086-1.188-0.156-1.803-0.208c-0.613-0.052-1.317-0.078-2.112-0.078c-0.762,0-1.327,0.121-1.699,0.363
			c-0.371,0.243-0.557,0.64-0.557,1.193c0,0.277,0.038,0.501,0.116,0.674s0.207,0.32,0.389,0.441s0.419,0.22,0.713,0.298
			c0.294,0.078,0.657,0.16,1.09,0.247c0.743,0.155,1.478,0.337,2.204,0.544c0.726,0.208,1.374,0.501,1.944,0.881
			c0.57,0.381,1.032,0.886,1.387,1.517c0.354,0.631,0.532,1.457,0.532,2.476c0,1.021-0.19,1.876-0.57,2.567
			c-0.381,0.691-0.887,1.245-1.518,1.659c-0.631,0.415-1.356,0.713-2.178,0.895C290.518,41.93,289.675,42.021,288.811,42.021z"/>
	</g>
	<g>
		<path fill="#43525A" d="M140.517,63.583c-0.087,0.276-0.199,0.467-0.337,0.57c-0.139,0.104-0.329,0.155-0.571,0.155h-2.878
			c-0.19,0-0.32-0.039-0.389-0.116c-0.069-0.077-0.061-0.263,0.026-0.558l5.004-15.815c0.086-0.242,0.19-0.428,0.312-0.559
			c0.12-0.129,0.354-0.193,0.7-0.193h3.267c0.363,0,0.601,0.068,0.713,0.207s0.212,0.328,0.299,0.57l5.211,15.843
			c0.053,0.207,0.061,0.362,0.026,0.466c-0.035,0.104-0.147,0.155-0.337,0.155h-3.216c-0.294,0-0.492-0.064-0.596-0.193
			c-0.104-0.131-0.199-0.333-0.285-0.609l-0.856-3.086h-5.159L140.517,63.583z M144.925,54.418l-0.83-3.178h-0.13l-0.855,3.151
			l-0.778,2.891h3.371L144.925,54.418z"/>
	</g>
	<g>
		<path fill="#43525A" d="M166.622,55.467c0,0.986-0.073,2.01-0.221,3.072c-0.146,1.064-0.479,2.041-0.998,2.931
			c-0.519,0.891-1.274,1.625-2.269,2.204s-2.338,0.869-4.032,0.869c-1.124,0-2.087-0.135-2.891-0.402s-1.479-0.627-2.022-1.076
			c-0.545-0.449-0.978-0.977-1.297-1.582c-0.32-0.604-0.566-1.244-0.739-1.918c-0.173-0.675-0.285-1.361-0.337-2.063
			c-0.052-0.699-0.078-1.377-0.078-2.035c0-0.501,0.03-1.066,0.091-1.698c0.061-0.63,0.182-1.261,0.363-1.893
			c0.182-0.631,0.437-1.249,0.765-1.854s0.766-1.141,1.31-1.607c0.545-0.467,1.215-0.842,2.01-1.127
			c0.795-0.286,1.746-0.429,2.853-0.429c1.624,0,2.925,0.255,3.902,0.765c0.977,0.511,1.732,1.176,2.269,1.997
			c0.535,0.82,0.89,1.745,1.063,2.773C166.535,53.424,166.622,54.448,166.622,55.467z M162.396,55.752
			c0-1.85-0.229-3.201-0.687-4.058c-0.459-0.855-1.31-1.282-2.555-1.282c-1.158,0-1.957,0.436-2.398,1.309
			c-0.44,0.873-0.661,2.217-0.661,4.031c0,1.746,0.212,3.057,0.636,3.929c0.423,0.873,1.231,1.31,2.424,1.31
			c1.228,0,2.074-0.428,2.541-1.283S162.396,57.534,162.396,55.752z"/>
	</g>
	<g>
		<path fill="#43525A" d="M173.612,64.543c-0.276,0-0.622-0.014-1.037-0.039c-0.415-0.026-0.855-0.07-1.322-0.13
			c-0.467-0.062-0.938-0.143-1.413-0.247c-0.476-0.104-0.921-0.232-1.336-0.389c-0.432-0.172-0.674-0.337-0.726-0.492
			c-0.052-0.156-0.052-0.354,0-0.597l0.312-1.504c0.086-0.345,0.189-0.536,0.311-0.57s0.354-0.026,0.7,0.026
			c0.312,0.035,0.657,0.073,1.037,0.116c0.38,0.044,0.77,0.083,1.167,0.116c0.397,0.035,0.795,0.065,1.192,0.092
			c0.397,0.025,0.778,0.039,1.142,0.039c0.881,0,1.525-0.139,1.932-0.416c0.406-0.275,0.609-0.691,0.609-1.244
			c0-0.311-0.044-0.566-0.13-0.766c-0.087-0.197-0.229-0.366-0.428-0.505c-0.199-0.138-0.45-0.255-0.752-0.351
			c-0.303-0.094-0.67-0.186-1.103-0.271c-0.743-0.156-1.478-0.342-2.203-0.558c-0.727-0.216-1.375-0.515-1.945-0.895
			s-1.033-0.873-1.387-1.478c-0.354-0.605-0.532-1.375-0.532-2.309c0-0.847,0.147-1.599,0.441-2.255s0.713-1.205,1.258-1.646
			c0.544-0.44,1.205-0.777,1.983-1.012c0.777-0.232,1.642-0.35,2.593-0.35c0.242,0,0.558,0.005,0.946,0.014
			c0.389,0.008,0.813,0.039,1.271,0.09c0.458,0.053,0.925,0.13,1.4,0.234c0.476,0.104,0.92,0.242,1.335,0.414
			c0.433,0.156,0.675,0.316,0.727,0.48s0.061,0.367,0.025,0.609l-0.362,1.529c-0.035,0.172-0.078,0.298-0.13,0.375
			s-0.121,0.13-0.208,0.155c-0.086,0.026-0.194,0.035-0.324,0.026c-0.129-0.009-0.28-0.021-0.453-0.039
			c-0.588-0.087-1.188-0.155-1.803-0.208c-0.613-0.051-1.317-0.077-2.112-0.077c-0.762,0-1.327,0.121-1.699,0.362
			c-0.371,0.243-0.557,0.641-0.557,1.193c0,0.277,0.038,0.502,0.116,0.674c0.078,0.174,0.207,0.32,0.389,0.441
			s0.419,0.221,0.713,0.298c0.294,0.078,0.657,0.16,1.09,0.247c0.743,0.154,1.478,0.336,2.204,0.544
			c0.726,0.208,1.374,0.501,1.944,0.882s1.032,0.886,1.387,1.517c0.354,0.632,0.532,1.456,0.532,2.476
			c0,1.021-0.19,1.877-0.57,2.568c-0.381,0.691-0.887,1.244-1.518,1.658c-0.631,0.416-1.356,0.714-2.178,0.895
			C175.319,64.452,174.476,64.543,173.612,64.543z"/>
	</g>
	<g>
		<path fill="#43525A" d="M203.939,55.467c0,0.986-0.073,2.01-0.221,3.072c-0.146,1.064-0.479,2.041-0.998,2.931
			c-0.519,0.891-1.274,1.625-2.269,2.204s-2.338,0.869-4.032,0.869c-1.124,0-2.087-0.135-2.891-0.402s-1.479-0.627-2.022-1.076
			c-0.545-0.449-0.978-0.977-1.297-1.582c-0.32-0.604-0.566-1.244-0.739-1.918c-0.173-0.675-0.285-1.361-0.337-2.063
			c-0.052-0.699-0.078-1.377-0.078-2.035c0-0.501,0.03-1.066,0.091-1.698c0.061-0.63,0.182-1.261,0.363-1.893
			c0.182-0.631,0.437-1.249,0.765-1.854s0.766-1.141,1.31-1.607c0.545-0.467,1.215-0.842,2.01-1.127
			c0.795-0.286,1.746-0.429,2.853-0.429c1.624,0,2.925,0.255,3.902,0.765c0.977,0.511,1.732,1.176,2.269,1.997
			c0.535,0.82,0.89,1.745,1.063,2.773C203.852,53.424,203.939,54.448,203.939,55.467z M199.712,55.752
			c0-1.85-0.229-3.201-0.687-4.058c-0.459-0.855-1.31-1.282-2.555-1.282c-1.158,0-1.957,0.436-2.398,1.309
			c-0.44,0.873-0.661,2.217-0.661,4.031c0,1.746,0.212,3.057,0.636,3.929c0.423,0.873,1.231,1.31,2.424,1.31
			c1.228,0,2.074-0.428,2.541-1.283S199.712,57.534,199.712,55.752z"/>
	</g>
	<g>
		<path fill="#43525A" d="M212.302,60.991c0.882,0,1.557-0.26,2.022-0.777c0.467-0.52,0.7-1.323,0.7-2.412l-0.025-10.138
			c0-0.172,0.043-0.314,0.13-0.428c0.086-0.111,0.241-0.168,0.466-0.168h2.982c0.242,0,0.393,0.064,0.454,0.193
			c0.06,0.131,0.091,0.265,0.091,0.402l-0.026,10.241c0,0.502-0.03,1.008-0.091,1.518s-0.194,1.033-0.402,1.568
			c-0.259,0.64-0.608,1.184-1.05,1.633c-0.44,0.45-0.942,0.817-1.504,1.103s-1.163,0.493-1.802,0.622
			c-0.64,0.13-1.288,0.195-1.945,0.195c-1.089,0.017-2.053-0.135-2.891-0.454c-0.839-0.319-1.543-0.773-2.113-1.361
			c-0.57-0.587-1.003-1.292-1.297-2.113s-0.44-1.725-0.44-2.71V47.664c0-0.172,0.039-0.314,0.116-0.428
			c0.078-0.111,0.229-0.168,0.454-0.168h2.982c0.241,0,0.393,0.064,0.453,0.193c0.061,0.131,0.091,0.265,0.091,0.402v10.138
			C209.657,59.928,210.539,60.991,212.302,60.991z"/>
	</g>
	<g>
		<path fill="#43525A" d="M232.299,50.362c-0.077,0.102-0.229,0.153-0.453,0.153h-3.838v13.223c0,0.139-0.03,0.269-0.091,0.39
			s-0.212,0.182-0.454,0.182h-2.981c-0.225,0-0.376-0.051-0.454-0.155c-0.077-0.104-0.116-0.243-0.116-0.416V50.515H220.1
			c-0.242,0-0.398-0.052-0.467-0.153c-0.069-0.103-0.104-0.231-0.104-0.386v-2.343c0-0.171,0.034-0.309,0.104-0.411
			c0.068-0.104,0.225-0.154,0.467-0.154h11.746c0.38,0,0.57,0.188,0.57,0.565v2.343C232.416,50.13,232.377,50.259,232.299,50.362z"
			/>
	</g>
	<g>
		<path fill="#43525A" d="M245.784,63.661c0.087,0.191,0.1,0.347,0.039,0.467c-0.061,0.121-0.186,0.182-0.376,0.182h-3.189
			c-0.259,0-0.471-0.039-0.635-0.116c-0.165-0.077-0.29-0.229-0.376-0.454l-2.646-5.989h-1.685v5.989
			c0,0.139-0.031,0.269-0.091,0.389c-0.062,0.121-0.212,0.182-0.454,0.182h-2.981c-0.243,0-0.402-0.051-0.48-0.155
			c-0.077-0.104-0.116-0.241-0.116-0.415V47.638c0-0.156,0.039-0.289,0.116-0.402c0.078-0.111,0.237-0.168,0.48-0.168h6.353
			c0.691,0,1.378,0.104,2.062,0.311c0.683,0.207,1.292,0.523,1.827,0.947c0.536,0.424,0.969,0.968,1.297,1.633
			s0.493,1.456,0.493,2.372c0,0.432-0.048,0.877-0.143,1.335c-0.096,0.458-0.256,0.895-0.48,1.31
			c-0.225,0.414-0.519,0.8-0.881,1.154c-0.363,0.354-0.805,0.652-1.323,0.895L245.784,63.661z M241.169,52.356
			c0-0.674-0.203-1.149-0.609-1.426s-0.912-0.415-1.517-0.415h-2.126v3.863h2.074c0.225,0,0.467-0.026,0.726-0.077
			c0.26-0.053,0.497-0.146,0.713-0.285s0.394-0.342,0.532-0.609C241.1,53.139,241.169,52.789,241.169,52.356z"/>
	</g>
	<g>
		<path fill="#43525A" d="M261.411,55.467c0,0.986-0.073,2.01-0.221,3.072c-0.146,1.064-0.479,2.041-0.998,2.931
			c-0.519,0.891-1.274,1.625-2.269,2.204s-2.338,0.869-4.032,0.869c-1.124,0-2.087-0.135-2.891-0.402s-1.479-0.627-2.022-1.076
			c-0.545-0.449-0.978-0.977-1.297-1.582c-0.32-0.604-0.566-1.244-0.739-1.918c-0.173-0.675-0.285-1.361-0.337-2.063
			c-0.052-0.699-0.078-1.377-0.078-2.035c0-0.501,0.03-1.066,0.091-1.698c0.061-0.63,0.182-1.261,0.363-1.893
			c0.182-0.631,0.437-1.249,0.765-1.854s0.766-1.141,1.31-1.607c0.545-0.467,1.215-0.842,2.01-1.127
			c0.795-0.286,1.746-0.429,2.853-0.429c1.624,0,2.925,0.255,3.902,0.765c0.977,0.511,1.732,1.176,2.269,1.997
			c0.535,0.82,0.89,1.745,1.063,2.773C261.324,53.424,261.411,54.448,261.411,55.467z M257.185,55.752
			c0-1.85-0.229-3.201-0.687-4.058c-0.459-0.855-1.31-1.282-2.555-1.282c-1.158,0-1.957,0.436-2.398,1.309
			c-0.44,0.873-0.661,2.217-0.661,4.031c0,1.746,0.212,3.057,0.636,3.929c0.423,0.873,1.231,1.31,2.424,1.31
			c1.228,0,2.074-0.428,2.541-1.283S257.185,57.534,257.185,55.752z"/>
	</g>
	<g>
		<path fill="#43525A" d="M268.405,64.543c-0.276,0-0.622-0.014-1.037-0.039c-0.415-0.026-0.855-0.07-1.322-0.13
			c-0.467-0.062-0.938-0.143-1.413-0.247c-0.476-0.104-0.921-0.232-1.336-0.389c-0.432-0.172-0.674-0.337-0.726-0.492
			c-0.052-0.156-0.052-0.354,0-0.597l0.312-1.504c0.086-0.345,0.189-0.536,0.311-0.57s0.354-0.026,0.7,0.026
			c0.312,0.035,0.657,0.073,1.037,0.116c0.38,0.044,0.77,0.083,1.167,0.116c0.397,0.035,0.795,0.065,1.192,0.092
			c0.397,0.025,0.778,0.039,1.142,0.039c0.881,0,1.525-0.139,1.932-0.416c0.406-0.275,0.609-0.691,0.609-1.244
			c0-0.311-0.044-0.566-0.13-0.766c-0.087-0.197-0.229-0.366-0.428-0.505c-0.199-0.138-0.45-0.255-0.752-0.351
			c-0.303-0.094-0.67-0.186-1.103-0.271c-0.743-0.156-1.478-0.342-2.203-0.558c-0.727-0.216-1.375-0.515-1.945-0.895
			s-1.033-0.873-1.387-1.478c-0.354-0.605-0.532-1.375-0.532-2.309c0-0.847,0.147-1.599,0.441-2.255s0.713-1.205,1.258-1.646
			c0.544-0.44,1.205-0.777,1.983-1.012c0.777-0.232,1.642-0.35,2.593-0.35c0.242,0,0.558,0.005,0.946,0.014
			c0.389,0.008,0.813,0.039,1.271,0.09c0.458,0.053,0.925,0.13,1.4,0.234c0.476,0.104,0.92,0.242,1.335,0.414
			c0.433,0.156,0.675,0.316,0.727,0.48s0.061,0.367,0.025,0.609l-0.362,1.529c-0.035,0.172-0.078,0.298-0.13,0.375
			s-0.121,0.13-0.208,0.155c-0.086,0.026-0.194,0.035-0.324,0.026c-0.129-0.009-0.28-0.021-0.453-0.039
			c-0.588-0.087-1.188-0.155-1.803-0.208c-0.613-0.051-1.317-0.077-2.112-0.077c-0.762,0-1.327,0.121-1.699,0.362
			c-0.371,0.243-0.557,0.641-0.557,1.193c0,0.277,0.038,0.502,0.116,0.674c0.078,0.174,0.207,0.32,0.389,0.441
			s0.419,0.221,0.713,0.298c0.294,0.078,0.657,0.16,1.09,0.247c0.743,0.154,1.478,0.336,2.204,0.544
			c0.726,0.208,1.374,0.501,1.944,0.882s1.032,0.886,1.387,1.517c0.354,0.632,0.532,1.456,0.532,2.476
			c0,1.021-0.19,1.877-0.57,2.568c-0.381,0.691-0.887,1.244-1.518,1.658c-0.631,0.416-1.356,0.714-2.178,0.895
			C270.112,64.452,269.269,64.543,268.405,64.543z"/>
	</g>
	<g>
		<path fill="#43525A" d="M144.754,9.927c0,0.299-0.042,0.604-0.125,0.917c-0.084,0.313-0.229,0.599-0.438,0.858
			c-0.207,0.259-0.485,0.47-0.833,0.633c-0.349,0.163-0.787,0.244-1.316,0.244h-1.733v3.325c0,0.149-0.074,0.224-0.222,0.224h-0.56
			c-0.156,0-0.234-0.075-0.234-0.224V7.592c0-0.141,0.079-0.211,0.237-0.211h2.506c0.388,0,0.748,0.053,1.082,0.159
			c0.334,0.105,0.622,0.264,0.864,0.475s0.431,0.477,0.567,0.798C144.686,9.133,144.754,9.504,144.754,9.927z M143.739,9.94
			c0-0.554-0.163-0.963-0.49-1.227c-0.326-0.264-0.759-0.396-1.298-0.396h-1.642v3.351h1.722c0.335,0,0.613-0.048,0.834-0.145
			s0.396-0.227,0.523-0.389s0.218-0.347,0.271-0.554C143.712,10.373,143.739,10.16,143.739,9.94z"/>
	</g>
	<g>
		<path fill="#43525A" d="M155.664,15.903c0.026,0.062,0.028,0.114,0.007,0.158c-0.022,0.044-0.064,0.066-0.126,0.066h-0.752
			c-0.07,0-0.127-0.011-0.171-0.033c-0.045-0.021-0.084-0.068-0.119-0.138l-1.688-3.509h-1.729v3.443
			c0,0.158-0.074,0.237-0.224,0.237h-0.567c-0.15,0-0.225-0.075-0.225-0.224V7.592c0-0.141,0.074-0.211,0.225-0.211h2.691
			c0.325,0,0.642,0.046,0.949,0.139s0.581,0.237,0.818,0.436c0.237,0.198,0.426,0.455,0.567,0.771
			c0.141,0.317,0.211,0.695,0.211,1.135c0,0.246-0.031,0.495-0.093,0.745s-0.158,0.486-0.29,0.706s-0.306,0.416-0.521,0.587
			c-0.215,0.171-0.473,0.306-0.771,0.402L155.664,15.903z M154.464,9.84c0-0.309-0.049-0.563-0.146-0.762s-0.227-0.353-0.39-0.463
			c-0.162-0.11-0.347-0.188-0.554-0.231c-0.207-0.044-0.42-0.066-0.64-0.066h-1.649v3.219h1.623c0.193,0,0.394-0.02,0.6-0.06
			c0.207-0.04,0.396-0.119,0.567-0.238c0.172-0.119,0.313-0.292,0.423-0.517C154.408,10.497,154.464,10.203,154.464,9.84z"/>
	</g>
	<g>
		<path fill="#43525A" d="M167.745,11.628c0,0.519-0.031,1.051-0.093,1.596c-0.062,0.545-0.208,1.042-0.44,1.491
			c-0.233,0.449-0.578,0.816-1.034,1.102c-0.456,0.286-1.075,0.429-1.856,0.429c-0.518,0-0.959-0.066-1.323-0.198
			s-0.669-0.31-0.915-0.534c-0.246-0.225-0.441-0.488-0.586-0.792c-0.145-0.304-0.257-0.627-0.336-0.97
			c-0.079-0.343-0.13-0.695-0.151-1.056c-0.021-0.36-0.032-0.716-0.032-1.068c0-0.272,0.013-0.569,0.039-0.891
			c0.026-0.321,0.079-0.642,0.158-0.963c0.079-0.321,0.195-0.633,0.349-0.937c0.153-0.304,0.354-0.569,0.599-0.798
			c0.246-0.229,0.551-0.413,0.915-0.554c0.364-0.14,0.797-0.211,1.298-0.211c0.746,0,1.345,0.128,1.797,0.383
			s0.796,0.587,1.033,0.996c0.237,0.409,0.394,0.873,0.468,1.392S167.745,11.092,167.745,11.628z M166.729,11.754
			c0-0.571-0.037-1.08-0.111-1.527c-0.075-0.448-0.205-0.823-0.39-1.126s-0.431-0.533-0.738-0.691
			c-0.309-0.158-0.695-0.237-1.161-0.237c-0.44,0-0.808,0.083-1.102,0.25c-0.295,0.167-0.53,0.406-0.706,0.718
			s-0.302,0.687-0.376,1.125c-0.075,0.439-0.112,0.935-0.112,1.488c0,0.535,0.033,1.021,0.1,1.455
			c0.065,0.435,0.185,0.808,0.355,1.119c0.172,0.312,0.404,0.553,0.699,0.724c0.295,0.171,0.675,0.257,1.142,0.257
			c0.475,0,0.866-0.081,1.174-0.244s0.554-0.395,0.739-0.698c0.185-0.303,0.312-0.676,0.382-1.119S166.729,12.307,166.729,11.754z"
			/>
	</g>
	<g>
		<path fill="#43525A" d="M176.05,15.659c-0.374,0.392-1.009,0.587-1.906,0.587c-0.281,0-0.554-0.02-0.817-0.059
			s-0.528-0.112-0.792-0.218c-0.105-0.044-0.169-0.09-0.191-0.139c-0.021-0.048-0.024-0.107-0.006-0.178l0.092-0.369
			c0.018-0.062,0.042-0.104,0.072-0.125c0.031-0.022,0.086-0.024,0.165-0.006c0.193,0.026,0.425,0.053,0.693,0.079
			c0.268,0.026,0.494,0.04,0.679,0.04c0.308,0,0.561-0.028,0.759-0.086c0.198-0.057,0.354-0.143,0.469-0.257
			c0.113-0.114,0.193-0.255,0.237-0.422s0.065-0.361,0.065-0.581V7.618c0-0.097,0.02-0.161,0.06-0.191s0.099-0.046,0.178-0.046
			h0.567c0.079,0,0.139,0.016,0.179,0.046c0.039,0.031,0.059,0.095,0.059,0.191v6.398C176.611,14.72,176.424,15.268,176.05,15.659z"
			/>
	</g>
	<g>
		<path fill="#43525A" d="M187.767,16.087c-0.035,0.026-0.092,0.04-0.171,0.04h-4.62c-0.156,0-0.234-0.07-0.234-0.211V7.605
			c0-0.149,0.078-0.225,0.234-0.225h4.541c0.149,0,0.224,0.07,0.224,0.208v0.507c0,0.147-0.079,0.221-0.237,0.221h-3.746v2.796
			h3.364c0.149,0,0.224,0.071,0.224,0.211v0.514c0,0.141-0.074,0.211-0.224,0.211h-3.364v3.14h3.852
			c0.141,0,0.212,0.075,0.212,0.224v0.501C187.821,16.004,187.802,16.061,187.767,16.087z"/>
	</g>
	<g>
		<path fill="#43525A" d="M198.361,8.317h-2.216v7.585c0,0.15-0.07,0.225-0.211,0.225h-0.567c-0.158,0-0.237-0.075-0.237-0.225
			V8.317h-2.203c-0.158,0-0.237-0.074-0.237-0.221V7.589c0-0.139,0.074-0.208,0.224-0.208h5.462c0.149,0,0.225,0.07,0.225,0.208
			v0.507C198.599,8.244,198.52,8.317,198.361,8.317z"/>
	</g>
	<g>
		<path fill="#43525A" d="M210.171,11.628c0,0.519-0.031,1.051-0.093,1.596c-0.062,0.545-0.208,1.042-0.44,1.491
			c-0.233,0.449-0.578,0.816-1.034,1.102c-0.456,0.286-1.075,0.429-1.856,0.429c-0.518,0-0.959-0.066-1.323-0.198
			s-0.669-0.31-0.915-0.534c-0.246-0.225-0.441-0.488-0.586-0.792c-0.145-0.304-0.257-0.627-0.336-0.97
			c-0.079-0.343-0.13-0.695-0.151-1.056c-0.021-0.36-0.032-0.716-0.032-1.068c0-0.272,0.013-0.569,0.039-0.891
			c0.026-0.321,0.079-0.642,0.158-0.963c0.079-0.321,0.195-0.633,0.349-0.937c0.153-0.304,0.354-0.569,0.599-0.798
			c0.246-0.229,0.551-0.413,0.915-0.554c0.364-0.14,0.797-0.211,1.298-0.211c0.746,0,1.345,0.128,1.797,0.383
			s0.796,0.587,1.033,0.996c0.237,0.409,0.394,0.873,0.468,1.392S210.171,11.092,210.171,11.628z M209.155,11.754
			c0-0.571-0.037-1.08-0.111-1.527c-0.075-0.448-0.205-0.823-0.39-1.126s-0.431-0.533-0.738-0.691
			c-0.309-0.158-0.695-0.237-1.161-0.237c-0.44,0-0.808,0.083-1.102,0.25c-0.295,0.167-0.53,0.406-0.706,0.718
			s-0.302,0.687-0.376,1.125c-0.075,0.439-0.112,0.935-0.112,1.488c0,0.535,0.033,1.021,0.1,1.455
			c0.065,0.435,0.185,0.808,0.355,1.119c0.172,0.312,0.404,0.553,0.699,0.724c0.295,0.171,0.675,0.257,1.142,0.257
			c0.475,0,0.866-0.081,1.174-0.244s0.554-0.395,0.739-0.698c0.185-0.303,0.312-0.676,0.382-1.119S209.155,12.307,209.155,11.754z"
			/>
	</g>
	<g>
		<path fill="#43525A" d="M224.937,13.7c0,0.475-0.079,0.875-0.237,1.2c-0.158,0.326-0.376,0.587-0.653,0.785
			c-0.276,0.198-0.598,0.341-0.963,0.429s-0.75,0.132-1.154,0.132c-0.185,0-0.392-0.009-0.62-0.026s-0.457-0.042-0.686-0.072
			c-0.229-0.031-0.451-0.068-0.666-0.112c-0.216-0.044-0.395-0.097-0.534-0.158c-0.098-0.044-0.154-0.088-0.172-0.132
			c-0.018-0.043-0.018-0.096,0-0.158l0.092-0.369c0.027-0.097,0.102-0.141,0.225-0.132c0.185,0.026,0.387,0.05,0.607,0.072
			c0.22,0.022,0.437,0.042,0.652,0.06s0.418,0.031,0.607,0.04c0.188,0.009,0.35,0.013,0.481,0.013c0.659,0,1.158-0.123,1.497-0.37
			c0.339-0.246,0.508-0.593,0.508-1.042c0-0.299-0.028-0.547-0.086-0.746c-0.057-0.198-0.156-0.36-0.297-0.488
			s-0.329-0.229-0.567-0.304c-0.237-0.074-0.532-0.143-0.884-0.204c-0.396-0.062-0.765-0.139-1.107-0.231
			c-0.344-0.092-0.643-0.22-0.897-0.383c-0.255-0.163-0.455-0.38-0.601-0.653c-0.145-0.272-0.218-0.629-0.218-1.068
			c0-0.809,0.242-1.425,0.726-1.847c0.484-0.422,1.179-0.633,2.085-0.633c0.132,0,0.294,0.005,0.488,0.013
			c0.193,0.009,0.399,0.026,0.62,0.053c0.22,0.026,0.439,0.062,0.659,0.105c0.22,0.044,0.418,0.102,0.594,0.172
			c0.097,0.035,0.153,0.077,0.171,0.125c0.018,0.049,0.018,0.104,0,0.165l-0.079,0.356c-0.018,0.044-0.041,0.083-0.072,0.119
			s-0.09,0.048-0.178,0.04c-0.29-0.044-0.634-0.086-1.029-0.125s-0.787-0.059-1.174-0.059c-0.343,0-0.632,0.035-0.864,0.105
			c-0.233,0.07-0.418,0.169-0.554,0.297c-0.137,0.127-0.233,0.283-0.291,0.468c-0.057,0.185-0.085,0.387-0.085,0.606
			c0,0.264,0.032,0.473,0.099,0.627s0.175,0.279,0.324,0.376c0.15,0.097,0.344,0.174,0.582,0.231s0.529,0.117,0.873,0.178
			c0.38,0.071,0.739,0.15,1.078,0.238c0.34,0.088,0.636,0.222,0.887,0.402s0.45,0.422,0.596,0.726
			C224.865,12.822,224.937,13.216,224.937,13.7z"/>
	</g>
	<g>
		<path fill="#43525A" d="M237.163,11.628c0,0.519-0.031,1.051-0.093,1.596c-0.062,0.545-0.208,1.042-0.44,1.491
			c-0.233,0.449-0.578,0.816-1.034,1.102c-0.456,0.286-1.075,0.429-1.856,0.429c-0.518,0-0.959-0.066-1.323-0.198
			s-0.669-0.31-0.915-0.534c-0.246-0.225-0.441-0.488-0.586-0.792c-0.145-0.304-0.257-0.627-0.336-0.97
			c-0.079-0.343-0.13-0.695-0.151-1.056c-0.021-0.36-0.032-0.716-0.032-1.068c0-0.272,0.013-0.569,0.039-0.891
			c0.026-0.321,0.079-0.642,0.158-0.963c0.079-0.321,0.195-0.633,0.349-0.937c0.153-0.304,0.354-0.569,0.599-0.798
			c0.246-0.229,0.551-0.413,0.915-0.554c0.364-0.14,0.797-0.211,1.298-0.211c0.746,0,1.345,0.128,1.797,0.383
			s0.796,0.587,1.033,0.996c0.237,0.409,0.394,0.873,0.468,1.392S237.163,11.092,237.163,11.628z M236.147,11.754
			c0-0.571-0.037-1.08-0.111-1.527c-0.075-0.448-0.205-0.823-0.39-1.126s-0.431-0.533-0.738-0.691
			c-0.309-0.158-0.695-0.237-1.161-0.237c-0.44,0-0.808,0.083-1.102,0.25c-0.295,0.167-0.53,0.406-0.706,0.718
			s-0.302,0.687-0.376,1.125c-0.075,0.439-0.112,0.935-0.112,1.488c0,0.535,0.033,1.021,0.1,1.455
			c0.065,0.435,0.185,0.808,0.355,1.119c0.172,0.312,0.404,0.553,0.699,0.724c0.295,0.171,0.675,0.257,1.142,0.257
			c0.475,0,0.866-0.081,1.174-0.244s0.554-0.395,0.739-0.698c0.185-0.303,0.312-0.676,0.382-1.119S236.147,12.307,236.147,11.754z"
			/>
	</g>
	<g>
		<path fill="#43525A" d="M246.256,7.288c0.132,0,0.294,0.005,0.488,0.013c0.193,0.009,0.399,0.026,0.62,0.053
			c0.22,0.026,0.439,0.062,0.659,0.105c0.22,0.044,0.418,0.102,0.594,0.172c0.097,0.044,0.153,0.088,0.171,0.132
			s0.018,0.097,0,0.158l-0.079,0.37c-0.018,0.044-0.041,0.083-0.072,0.119s-0.09,0.044-0.178,0.026
			c-0.29-0.044-0.632-0.086-1.022-0.125c-0.392-0.04-0.785-0.059-1.181-0.059c-0.511,0-0.915,0.097-1.214,0.29
			s-0.527,0.455-0.686,0.785c-0.159,0.33-0.26,0.712-0.304,1.148s-0.066,0.895-0.066,1.378c0,0.44,0.026,0.867,0.079,1.28
			c0.053,0.414,0.161,0.778,0.323,1.095c0.163,0.317,0.394,0.57,0.693,0.759c0.299,0.189,0.689,0.284,1.174,0.284
			c0.404,0,0.791-0.02,1.161-0.06c0.369-0.04,0.712-0.081,1.028-0.125c0.097-0.018,0.16-0.007,0.191,0.033s0.055,0.082,0.072,0.125
			l0.066,0.343c0.018,0.071,0.02,0.128,0.007,0.172c-0.014,0.044-0.064,0.083-0.152,0.119c-0.158,0.07-0.347,0.127-0.566,0.171
			c-0.221,0.044-0.442,0.079-0.667,0.105c-0.224,0.026-0.438,0.046-0.64,0.06s-0.369,0.02-0.501,0.02
			c-0.695,0-1.26-0.121-1.696-0.363c-0.436-0.242-0.778-0.565-1.027-0.97c-0.249-0.404-0.418-0.871-0.507-1.398
			c-0.089-0.528-0.134-1.078-0.134-1.649c0-0.58,0.042-1.146,0.127-1.695c0.084-0.55,0.247-1.036,0.487-1.458
			c0.24-0.422,0.58-0.763,1.021-1.022C244.967,7.418,245.543,7.288,246.256,7.288z"/>
	</g>
	<g>
		<path fill="#43525A" d="M255.123,16.127h-0.58c-0.158,0-0.237-0.075-0.237-0.224V7.618c0-0.097,0.02-0.161,0.06-0.191
			c0.039-0.031,0.099-0.046,0.178-0.046h0.58c0.07,0,0.126,0.016,0.165,0.046c0.04,0.031,0.06,0.095,0.06,0.191v8.285
			C255.348,16.052,255.273,16.127,255.123,16.127z"/>
	</g>
	<g>
		<path fill="#43525A" d="M261.837,15.916c-0.026,0.088-0.062,0.145-0.105,0.171s-0.101,0.04-0.171,0.04h-0.687
			c-0.123,0-0.158-0.07-0.105-0.211l2.757-8.324c0.035-0.132,0.119-0.198,0.251-0.198h0.739c0.088,0,0.146,0.018,0.178,0.053
			c0.03,0.036,0.055,0.084,0.072,0.146l2.758,8.351c0.026,0.123-0.009,0.185-0.105,0.185h-0.805c-0.071,0-0.121-0.013-0.152-0.04
			c-0.03-0.026-0.055-0.07-0.072-0.132l-0.646-2.164h-3.219L261.837,15.916z M264.792,10.652l-0.633-2.137h-0.04l-0.62,2.098
			l-0.672,2.243h2.625L264.792,10.652z"/>
	</g>
	<g>
		<path fill="#43525A" d="M277.795,16.127h-4.749c-0.158,0-0.237-0.07-0.237-0.211V7.618c0-0.097,0.02-0.161,0.06-0.191
			c0.039-0.031,0.095-0.046,0.165-0.046h0.58c0.07,0,0.123,0.016,0.158,0.046s0.053,0.095,0.053,0.191v7.572h3.958
			c0.149,0,0.225,0.075,0.225,0.224v0.501C278.007,16.057,277.936,16.127,277.795,16.127z"/>
	</g>
</g>
</svg>
