<?xml version="1.0" encoding="utf-8"?>
<!-- Generator: Adobe Illustrator 16.0.0, SVG Export Plug-In . SVG Version: 6.00 Build 0)  -->
<!DOCTYPE svg PUBLIC "-//W3C//DTD SVG 1.1//EN" "http://www.w3.org/Graphics/SVG/1.1/DTD/svg11.dtd">
<svg version="1.1" id="Layer_1" xmlns="http://www.w3.org/2000/svg" xmlns:xlink="http://www.w3.org/1999/xlink" x="0px" y="0px"
	 width="407.281px" height="99px" viewBox="0 0 407.281 99" enable-background="new 0 0 407.281 99" xml:space="preserve">
<path fill="#ED1C24" d="M46.469,41.878c23.155,28.263-27.144,35.29-20.949,0.869c0.791-4.371-3.355-5.003-4.265-2.565
	C9.498,73.102,34.115,81.875,47.771,96.43c19.862-24.938,15.477-42.889,2.59-55.516C48.025,38.625,44.936,39.997,46.469,41.878"/>
<path fill="#ED1C24" d="M46.928,52.018c0,4.633-3.746,8.398-8.402,8.398c-4.635,0-8.396-3.766-8.396-8.398
	c0-4.653,3.761-8.417,8.396-8.417C43.182,43.6,46.928,47.363,46.928,52.018"/>
<path fill="#0095DA" d="M50.783,29.181c-1.4-4.881,3.812-6.504,6.486-2.437c13.533,20.584,40.698,0.75,30.557-18.523
	c-1.387-2.607,0.764-5.327,4.055-2.426c5.791,5.097,9.654,12.933,9.654,22.797c0,30.188-40.149,61.071-50.752,70.409
	C85.01,56.082,55.443,45.684,50.783,29.181"/>
<path fill="#0095DA" d="M72.709,4.646c-5.746,0-10.377,4.654-10.377,10.392c0,5.712,4.631,10.376,10.377,10.376
	c5.728,0,10.377-4.665,10.377-10.376C83.086,9.3,78.436,4.646,72.709,4.646"/>
<path fill="#EEDE10" d="M33.07,34.338c-2.896-4.325-13-15.732-8.461-23.134c2.611-4.274,10.406-3.723,19.424,1.313
	c2.131,1.201,4.902-1.288,3.258-2.814C25.521-10.364,0,3.029,0,28.591c0,13.075,7.513,26.261,16.933,37.782
	c-15.011-36.412-3.082-43.54,12.44-28.005C31.648,40.609,35.334,37.725,33.07,34.338"/>
<path fill="#8CC63F" d="M37.938,14.649c-3.885,0-7.062,3.177-7.062,7.065c0,3.921,3.177,7.097,7.062,7.097
	c3.916,0,7.088-3.176,7.088-7.097C45.025,17.826,41.854,14.649,37.938,14.649"/>
<path fill="#00AEEF" d="M91.881,5.794c-3.291-2.9-5.44-0.181-4.055,2.426C97.969,27.495,70.803,47.328,57.27,26.744
	c-2.676-4.068-7.888-2.445-6.486,2.437c1.197,4.235,4.059,8.099,7.033,12.19c19.373,2.895,36.477-1.085,43.596-9.814
	c0.066-0.993,0.123-1.977,0.123-2.966C101.535,18.728,97.672,10.892,91.881,5.794"/>
<path fill="#00AEEF" d="M72.709,25.414c5.728,0,10.377-4.665,10.377-10.376c0-5.737-4.649-10.392-10.377-10.392
	c-5.746,0-10.377,4.654-10.377,10.392C62.332,20.749,66.963,25.414,72.709,25.414"/>
<path fill="#FFF200" d="M45.025,21.714c0-3.888-3.172-7.065-7.088-7.065c-3.885,0-7.062,3.177-7.062,7.065
	c0,3.921,3.177,7.097,7.062,7.097C41.854,28.811,45.025,25.635,45.025,21.714"/>
<path fill="#FFF200" d="M7.998,7.272c0.697,9.6,10.289,19.626,24.703,26.524c-3.281-4.65-12.449-15.485-8.092-22.592
	c2.611-4.274,10.406-3.723,19.424,1.313c2.131,1.201,4.902-1.288,3.258-2.814C33.076-3.404,17.25-2.229,7.998,7.272"/>
<g enable-background="new    ">
	<path fill="#43525A" d="M124.241,44.355c-0.079,0.253-0.182,0.427-0.308,0.521c-0.126,0.095-0.3,0.142-0.521,0.142h-2.627
		c-0.174,0-0.292-0.035-0.355-0.106s-0.055-0.24,0.024-0.509l4.567-14.436c0.079-0.221,0.173-0.391,0.284-0.509
		c0.11-0.118,0.323-0.177,0.639-0.177h2.982c0.331,0,0.548,0.063,0.651,0.188c0.102,0.127,0.193,0.3,0.272,0.521l4.756,14.458
		c0.047,0.189,0.055,0.332,0.024,0.427c-0.032,0.095-0.134,0.142-0.308,0.142h-2.935c-0.269,0-0.45-0.06-0.544-0.178
		c-0.095-0.118-0.182-0.304-0.261-0.556l-0.781-2.816h-4.709L124.241,44.355z M128.264,35.991l-0.757-2.899h-0.118l-0.781,2.876
		l-0.71,2.638h3.077L128.264,35.991z"/>
</g>
<g enable-background="new    ">
	<path fill="#43525A" d="M142.69,38.18l1.798-3.716l2.295-4.591c0.11-0.188,0.229-0.335,0.355-0.438s0.347-0.153,0.663-0.153h1.94
		c0.221,0,0.355,0.059,0.402,0.177s0.071,0.233,0.071,0.344v14.695c0,0.126-0.024,0.245-0.071,0.354
		c-0.047,0.111-0.181,0.166-0.402,0.166h-2.65c-0.205,0-0.343-0.047-0.414-0.142c-0.071-0.095-0.106-0.221-0.106-0.379v-7.241
		l-0.071-0.023l-0.828,1.846l-1.491,3.053c-0.11,0.189-0.236,0.339-0.378,0.449s-0.347,0.166-0.615,0.166h-1.16
		c-0.284,0-0.493-0.052-0.627-0.154c-0.134-0.103-0.257-0.24-0.367-0.414l-1.538-3.171l-0.828-1.799l-0.047,0.024v7.265
		c0,0.126-0.028,0.245-0.083,0.354c-0.055,0.111-0.193,0.166-0.414,0.166h-2.65c-0.189,0-0.319-0.047-0.39-0.142
		c-0.071-0.095-0.106-0.221-0.106-0.379V29.803c0-0.143,0.035-0.265,0.106-0.367c0.071-0.103,0.201-0.153,0.39-0.153h2.035
		c0.315,0,0.541,0.043,0.675,0.13c0.134,0.087,0.256,0.232,0.367,0.438l2.295,4.662l1.751,3.668H142.69z"/>
</g>
<g enable-background="new    ">
	<path fill="#43525A" d="M154.372,44.355c-0.079,0.253-0.182,0.427-0.308,0.521c-0.126,0.095-0.3,0.142-0.521,0.142h-2.627
		c-0.174,0-0.292-0.035-0.355-0.106s-0.055-0.24,0.024-0.509l4.567-14.436c0.079-0.221,0.173-0.391,0.284-0.509
		c0.11-0.118,0.323-0.177,0.639-0.177h2.982c0.331,0,0.548,0.063,0.651,0.188c0.102,0.127,0.193,0.3,0.272,0.521l4.756,14.458
		c0.047,0.189,0.055,0.332,0.024,0.427c-0.032,0.095-0.134,0.142-0.308,0.142h-2.935c-0.269,0-0.45-0.06-0.544-0.178
		c-0.095-0.118-0.182-0.304-0.261-0.556l-0.781-2.816h-4.709L154.372,44.355z M158.395,35.991l-0.757-2.899h-0.118l-0.781,2.876
		l-0.71,2.638h3.077L158.395,35.991z"/>
</g>
<g enable-background="new    ">
	<path fill="#43525A" d="M165.206,29.826c0-0.157,0.036-0.288,0.107-0.391c0.071-0.103,0.201-0.153,0.39-0.153h2.769
		c0.221,0,0.358,0.059,0.414,0.177c0.055,0.118,0.083,0.241,0.083,0.367v14.672c0,0.126-0.027,0.245-0.083,0.354
		c-0.056,0.111-0.193,0.166-0.414,0.166h-2.769c-0.189,0-0.319-0.047-0.39-0.142c-0.071-0.095-0.107-0.221-0.107-0.379V29.826z"/>
</g>
<g enable-background="new    ">
	<path fill="#43525A" d="M177.832,36.073c0.205,0,0.339,0.036,0.402,0.106c0.063,0.071,0.095,0.186,0.095,0.344v1.822
		c0,0.173-0.032,0.3-0.095,0.378c-0.063,0.079-0.197,0.118-0.402,0.118h-7.383c-0.331,0-0.497-0.165-0.497-0.496v-1.799
		c0-0.315,0.166-0.474,0.497-0.474H177.832z"/>
</g>
<g enable-background="new    ">
	<path fill="#43525A" d="M183.483,35.506l1.515,5.135h0.118l1.467-5.183l1.585-5.442c0.079-0.237,0.185-0.418,0.319-0.545
		c0.134-0.126,0.335-0.188,0.604-0.188h2.745c0.237,0,0.358,0.063,0.367,0.188c0.008,0.127-0.012,0.261-0.059,0.402l-4.804,14.459
		c-0.079,0.205-0.178,0.371-0.296,0.497c-0.118,0.127-0.359,0.189-0.722,0.189h-2.674c-0.315,0-0.544-0.055-0.686-0.166
		c-0.142-0.109-0.245-0.275-0.308-0.497l-4.78-14.482c-0.079-0.173-0.095-0.315-0.047-0.426s0.189-0.165,0.426-0.165h2.532
		c0.315,0,0.54,0.047,0.674,0.142c0.134,0.095,0.233,0.269,0.296,0.521L183.483,35.506z"/>
</g>
<g enable-background="new    ">
	<path fill="#43525A" d="M205.529,36.949c0,0.899-0.068,1.834-0.201,2.804c-0.135,0.971-0.438,1.862-0.912,2.675
		c-0.473,0.813-1.163,1.482-2.07,2.011c-0.908,0.529-2.134,0.793-3.68,0.793c-1.025,0-1.905-0.122-2.638-0.367
		c-0.734-0.244-1.349-0.571-1.846-0.981c-0.497-0.41-0.891-0.892-1.183-1.443c-0.292-0.553-0.517-1.136-0.674-1.752
		c-0.158-0.615-0.26-1.242-0.308-1.881s-0.071-1.258-0.071-1.857c0-0.458,0.028-0.975,0.083-1.55
		c0.055-0.576,0.166-1.151,0.332-1.728c0.166-0.576,0.398-1.14,0.698-1.692c0.3-0.552,0.698-1.041,1.195-1.467
		c0.497-0.427,1.108-0.77,1.834-1.029c0.726-0.261,1.593-0.391,2.603-0.391c1.482,0,2.67,0.232,3.562,0.698
		c0.891,0.465,1.582,1.072,2.071,1.821c0.488,0.75,0.813,1.594,0.97,2.532C205.449,35.084,205.529,36.019,205.529,36.949z
		 M201.671,37.209c0-1.688-0.209-2.922-0.627-3.703s-1.195-1.171-2.331-1.171c-1.057,0-1.787,0.398-2.189,1.194
		c-0.402,0.797-0.603,2.023-0.603,3.68c0,1.594,0.193,2.789,0.58,3.586c0.386,0.796,1.124,1.194,2.212,1.194
		c1.12,0,1.893-0.391,2.319-1.171C201.458,40.037,201.671,38.834,201.671,37.209z"/>
</g>
<g enable-background="new    ">
	<path fill="#43525A" d="M211.908,45.231c-0.253,0-0.568-0.012-0.947-0.035s-0.781-0.063-1.207-0.118
		c-0.426-0.056-0.855-0.131-1.289-0.226s-0.84-0.213-1.219-0.354c-0.395-0.157-0.615-0.308-0.662-0.45
		c-0.048-0.142-0.048-0.322,0-0.544l0.283-1.372c0.079-0.315,0.174-0.489,0.284-0.521c0.11-0.032,0.323-0.024,0.639,0.023
		c0.284,0.031,0.6,0.067,0.946,0.106c0.348,0.039,0.702,0.075,1.065,0.106c0.362,0.031,0.726,0.059,1.089,0.083
		c0.362,0.023,0.709,0.035,1.041,0.035c0.805,0,1.393-0.126,1.763-0.379c0.37-0.252,0.556-0.631,0.556-1.136
		c0-0.284-0.039-0.517-0.117-0.698c-0.08-0.181-0.21-0.335-0.391-0.461c-0.182-0.126-0.41-0.232-0.687-0.319
		s-0.612-0.17-1.006-0.249c-0.679-0.142-1.349-0.312-2.011-0.509c-0.663-0.197-1.255-0.469-1.775-0.816
		c-0.521-0.347-0.943-0.796-1.266-1.349c-0.324-0.552-0.486-1.254-0.486-2.106c0-0.772,0.135-1.459,0.402-2.059
		c0.269-0.6,0.651-1.101,1.148-1.503s1.1-0.71,1.811-0.923c0.709-0.213,1.498-0.319,2.366-0.319c0.221,0,0.509,0.004,0.864,0.012
		c0.354,0.009,0.74,0.036,1.158,0.083c0.418,0.048,0.845,0.118,1.279,0.213c0.434,0.095,0.84,0.222,1.218,0.379
		c0.395,0.142,0.616,0.288,0.663,0.438c0.047,0.15,0.055,0.336,0.023,0.557l-0.332,1.396c-0.031,0.158-0.07,0.272-0.117,0.344
		c-0.048,0.07-0.111,0.118-0.189,0.142c-0.08,0.023-0.178,0.032-0.296,0.023c-0.118-0.008-0.257-0.02-0.415-0.035
		c-0.535-0.079-1.084-0.142-1.645-0.189c-0.56-0.047-1.203-0.071-1.928-0.071c-0.695,0-1.211,0.111-1.551,0.332
		c-0.339,0.221-0.508,0.584-0.508,1.088c0,0.253,0.035,0.458,0.105,0.615c0.071,0.158,0.189,0.293,0.355,0.402
		c0.166,0.111,0.383,0.201,0.65,0.272c0.269,0.071,0.6,0.146,0.994,0.225c0.678,0.143,1.35,0.308,2.012,0.497
		s1.254,0.458,1.775,0.805c0.52,0.348,0.941,0.809,1.266,1.385c0.322,0.576,0.484,1.329,0.484,2.26s-0.174,1.712-0.52,2.343
		c-0.348,0.631-0.809,1.136-1.385,1.515c-0.576,0.378-1.238,0.65-1.988,0.816C213.466,45.148,212.697,45.231,211.908,45.231z"/>
</g>
<g enable-background="new    ">
	<path fill="#43525A" d="M232.399,41.989c0.805,0,1.42-0.236,1.846-0.71c0.426-0.473,0.64-1.207,0.64-2.2l-0.024-9.253
		c0-0.157,0.039-0.288,0.118-0.391s0.221-0.153,0.426-0.153h2.722c0.221,0,0.358,0.059,0.414,0.177s0.083,0.241,0.083,0.367
		l-0.023,9.348c0,0.457-0.027,0.919-0.083,1.384c-0.056,0.466-0.178,0.943-0.366,1.432c-0.237,0.584-0.557,1.081-0.959,1.491
		s-0.859,0.745-1.373,1.006c-0.512,0.26-1.061,0.449-1.645,0.567c-0.584,0.119-1.176,0.178-1.774,0.178
		c-0.994,0.016-1.874-0.122-2.639-0.414s-1.408-0.706-1.929-1.242s-0.915-1.18-1.184-1.929c-0.268-0.749-0.402-1.574-0.402-2.473
		v-9.348c0-0.157,0.036-0.288,0.107-0.391c0.07-0.103,0.209-0.153,0.414-0.153h2.721c0.221,0,0.359,0.059,0.414,0.177
		c0.056,0.118,0.084,0.241,0.084,0.367v9.253C229.986,41.02,230.79,41.989,232.399,41.989z"/>
</g>
<g enable-background="new    ">
	<path fill="#43525A" d="M244.011,36.216h-0.07v8.306c0,0.127-0.032,0.241-0.096,0.343c-0.063,0.104-0.197,0.154-0.402,0.154h-2.627
		c-0.362,0-0.543-0.166-0.543-0.497V29.826c0-0.142,0.039-0.264,0.117-0.367c0.079-0.103,0.213-0.153,0.402-0.153h1.941
		c0.362,0,0.611,0.063,0.745,0.189s0.264,0.292,0.39,0.497c0.127,0.205,0.332,0.521,0.615,0.946
		c0.285,0.426,0.604,0.911,0.959,1.455s0.726,1.112,1.112,1.704c0.386,0.592,0.757,1.159,1.112,1.704
		c0.355,0.544,0.67,1.029,0.946,1.455s0.478,0.733,0.604,0.923c0.016,0,0.027-0.004,0.036-0.012c0.008-0.008,0.02-0.012,0.035-0.012
		V29.85c0-0.126,0.031-0.248,0.094-0.366c0.063-0.119,0.205-0.178,0.427-0.178h2.626c0.189,0,0.32,0.047,0.391,0.142
		c0.071,0.095,0.107,0.229,0.107,0.402v14.672c0,0.158-0.036,0.28-0.107,0.367c-0.07,0.087-0.201,0.13-0.391,0.13h-1.939
		c-0.269,0-0.474-0.047-0.615-0.142c-0.143-0.095-0.276-0.229-0.402-0.402c-0.6-0.899-1.199-1.795-1.799-2.687
		c-0.6-0.891-1.199-1.786-1.799-2.686L244.011,36.216z"/>
</g>
<g enable-background="new    ">
	<path fill="#43525A" d="M259.57,45.231c-0.253,0-0.568-0.012-0.947-0.035s-0.781-0.063-1.207-0.118
		c-0.426-0.056-0.855-0.131-1.289-0.226s-0.84-0.213-1.219-0.354c-0.395-0.157-0.615-0.308-0.662-0.45
		c-0.048-0.142-0.048-0.322,0-0.544l0.283-1.372c0.079-0.315,0.174-0.489,0.284-0.521c0.11-0.032,0.323-0.024,0.639,0.023
		c0.284,0.031,0.6,0.067,0.946,0.106c0.348,0.039,0.702,0.075,1.065,0.106c0.362,0.031,0.726,0.059,1.089,0.083
		c0.362,0.023,0.709,0.035,1.041,0.035c0.805,0,1.393-0.126,1.763-0.379c0.37-0.252,0.556-0.631,0.556-1.136
		c0-0.284-0.039-0.517-0.117-0.698c-0.08-0.181-0.21-0.335-0.391-0.461c-0.182-0.126-0.41-0.232-0.687-0.319
		s-0.612-0.17-1.006-0.249c-0.679-0.142-1.349-0.312-2.011-0.509c-0.663-0.197-1.255-0.469-1.775-0.816
		c-0.521-0.347-0.943-0.796-1.266-1.349c-0.324-0.552-0.486-1.254-0.486-2.106c0-0.772,0.135-1.459,0.402-2.059
		c0.269-0.6,0.651-1.101,1.148-1.503s1.1-0.71,1.811-0.923c0.709-0.213,1.498-0.319,2.366-0.319c0.221,0,0.509,0.004,0.864,0.012
		c0.354,0.009,0.74,0.036,1.158,0.083c0.418,0.048,0.845,0.118,1.279,0.213c0.434,0.095,0.84,0.222,1.218,0.379
		c0.395,0.142,0.616,0.288,0.663,0.438c0.047,0.15,0.055,0.336,0.023,0.557l-0.332,1.396c-0.031,0.158-0.07,0.272-0.117,0.344
		c-0.048,0.07-0.111,0.118-0.189,0.142c-0.08,0.023-0.178,0.032-0.296,0.023c-0.118-0.008-0.257-0.02-0.415-0.035
		c-0.535-0.079-1.084-0.142-1.645-0.189c-0.56-0.047-1.203-0.071-1.928-0.071c-0.695,0-1.211,0.111-1.551,0.332
		c-0.339,0.221-0.508,0.584-0.508,1.088c0,0.253,0.035,0.458,0.105,0.615c0.071,0.158,0.189,0.293,0.355,0.402
		c0.166,0.111,0.383,0.201,0.65,0.272c0.269,0.071,0.6,0.146,0.994,0.225c0.678,0.143,1.35,0.308,2.012,0.497
		s1.254,0.458,1.775,0.805c0.52,0.348,0.941,0.809,1.266,1.385c0.322,0.576,0.484,1.329,0.484,2.26s-0.174,1.712-0.52,2.343
		c-0.348,0.631-0.809,1.136-1.385,1.515c-0.576,0.378-1.238,0.65-1.988,0.816C261.128,45.148,260.359,45.231,259.57,45.231z"/>
</g>
<g enable-background="new    ">
	<path fill="#43525A" d="M276.34,44.355c-0.079,0.253-0.182,0.427-0.308,0.521s-0.3,0.142-0.521,0.142h-2.627
		c-0.174,0-0.292-0.035-0.355-0.106c-0.063-0.071-0.055-0.24,0.024-0.509l4.567-14.436c0.078-0.221,0.173-0.391,0.283-0.509
		c0.111-0.118,0.324-0.177,0.639-0.177h2.982c0.331,0,0.548,0.063,0.65,0.188c0.103,0.127,0.193,0.3,0.272,0.521l4.757,14.458
		c0.047,0.189,0.055,0.332,0.023,0.427s-0.135,0.142-0.308,0.142h-2.935c-0.269,0-0.449-0.06-0.544-0.178s-0.182-0.304-0.261-0.556
		l-0.781-2.816h-4.709L276.34,44.355z M280.363,35.991l-0.758-2.899h-0.118l-0.781,2.876l-0.71,2.638h3.076L280.363,35.991z"/>
</g>
<g enable-background="new    ">
	<path fill="#43525A" d="M300.164,36.949c0,0.899-0.067,1.834-0.201,2.804c-0.135,0.971-0.438,1.862-0.911,2.675
		s-1.163,1.482-2.07,2.011c-0.907,0.529-2.134,0.793-3.681,0.793c-1.025,0-1.904-0.122-2.638-0.367
		c-0.733-0.244-1.349-0.571-1.847-0.981c-0.496-0.41-0.891-0.892-1.183-1.443c-0.292-0.553-0.517-1.136-0.675-1.752
		c-0.157-0.615-0.26-1.242-0.307-1.881c-0.048-0.639-0.072-1.258-0.072-1.857c0-0.458,0.028-0.975,0.084-1.55
		c0.055-0.576,0.165-1.151,0.331-1.728c0.165-0.576,0.397-1.14,0.698-1.692c0.299-0.552,0.697-1.041,1.195-1.467
		c0.496-0.427,1.107-0.77,1.834-1.029c0.725-0.261,1.593-0.391,2.603-0.391c1.482,0,2.67,0.232,3.562,0.698
		c0.891,0.465,1.582,1.072,2.07,1.821c0.488,0.75,0.813,1.594,0.971,2.532C300.085,35.084,300.164,36.019,300.164,36.949z
		 M296.306,37.209c0-1.688-0.209-2.922-0.627-3.703s-1.195-1.171-2.331-1.171c-1.058,0-1.786,0.398-2.188,1.194
		c-0.402,0.797-0.604,2.023-0.604,3.68c0,1.594,0.193,2.789,0.58,3.586c0.386,0.796,1.123,1.194,2.212,1.194
		c1.12,0,1.894-0.391,2.319-1.171C296.094,40.037,296.306,38.834,296.306,37.209z"/>
</g>
<g enable-background="new    ">
	<path fill="#43525A" d="M306.54,45.231c-0.253,0-0.567-0.012-0.946-0.035s-0.781-0.063-1.207-0.118
		c-0.426-0.056-0.855-0.131-1.289-0.226c-0.435-0.095-0.841-0.213-1.219-0.354c-0.395-0.157-0.615-0.308-0.663-0.45
		c-0.048-0.142-0.048-0.322,0-0.544l0.284-1.372c0.078-0.315,0.173-0.489,0.283-0.521c0.111-0.032,0.324-0.024,0.639,0.023
		c0.285,0.031,0.6,0.067,0.947,0.106c0.347,0.039,0.701,0.075,1.064,0.106s0.727,0.059,1.089,0.083
		c0.362,0.023,0.71,0.035,1.042,0.035c0.805,0,1.392-0.126,1.762-0.379c0.371-0.252,0.557-0.631,0.557-1.136
		c0-0.284-0.039-0.517-0.118-0.698c-0.079-0.181-0.21-0.335-0.391-0.461c-0.182-0.126-0.41-0.232-0.687-0.319
		c-0.275-0.087-0.611-0.17-1.006-0.249c-0.678-0.142-1.348-0.312-2.011-0.509s-1.255-0.469-1.774-0.816
		c-0.521-0.347-0.943-0.796-1.267-1.349c-0.323-0.552-0.485-1.254-0.485-2.106c0-0.772,0.134-1.459,0.402-2.059
		c0.268-0.6,0.65-1.101,1.148-1.503c0.496-0.402,1.1-0.71,1.81-0.923s1.499-0.319,2.366-0.319c0.221,0,0.51,0.004,0.864,0.012
		c0.354,0.009,0.741,0.036,1.159,0.083c0.418,0.048,0.844,0.118,1.278,0.213c0.434,0.095,0.84,0.222,1.218,0.379
		c0.395,0.142,0.616,0.288,0.663,0.438c0.048,0.15,0.056,0.336,0.024,0.557l-0.332,1.396c-0.031,0.158-0.07,0.272-0.118,0.344
		c-0.048,0.07-0.11,0.118-0.189,0.142s-0.177,0.032-0.296,0.023c-0.118-0.008-0.256-0.02-0.414-0.035
		c-0.536-0.079-1.084-0.142-1.645-0.189c-0.561-0.047-1.203-0.071-1.929-0.071c-0.694,0-1.211,0.111-1.55,0.332
		c-0.34,0.221-0.509,0.584-0.509,1.088c0,0.253,0.036,0.458,0.106,0.615c0.07,0.158,0.189,0.293,0.355,0.402
		c0.165,0.111,0.382,0.201,0.65,0.272c0.268,0.071,0.6,0.146,0.994,0.225c0.678,0.143,1.349,0.308,2.012,0.497
		c0.662,0.189,1.254,0.458,1.774,0.805c0.521,0.348,0.942,0.809,1.266,1.385s0.485,1.329,0.485,2.26s-0.174,1.712-0.521,2.343
		s-0.809,1.136-1.384,1.515c-0.576,0.378-1.239,0.65-1.988,0.816C308.097,45.148,307.329,45.231,306.54,45.231z"/>
</g>
<g enable-background="new    ">
	<path fill="#43525A" d="M334.224,36.949c0,0.899-0.067,1.834-0.201,2.804c-0.135,0.971-0.438,1.862-0.911,2.675
		s-1.163,1.482-2.07,2.011c-0.907,0.529-2.134,0.793-3.681,0.793c-1.025,0-1.904-0.122-2.638-0.367
		c-0.733-0.244-1.349-0.571-1.847-0.981c-0.496-0.41-0.891-0.892-1.183-1.443c-0.292-0.553-0.517-1.136-0.675-1.752
		c-0.157-0.615-0.26-1.242-0.307-1.881c-0.048-0.639-0.072-1.258-0.072-1.857c0-0.458,0.028-0.975,0.084-1.55
		c0.055-0.576,0.165-1.151,0.331-1.728c0.165-0.576,0.397-1.14,0.698-1.692c0.299-0.552,0.697-1.041,1.195-1.467
		c0.496-0.427,1.107-0.77,1.834-1.029c0.725-0.261,1.593-0.391,2.603-0.391c1.482,0,2.67,0.232,3.562,0.698
		c0.891,0.465,1.582,1.072,2.07,1.821c0.488,0.75,0.813,1.594,0.971,2.532C334.145,35.084,334.224,36.019,334.224,36.949z
		 M330.367,37.209c0-1.688-0.209-2.922-0.627-3.703s-1.195-1.171-2.331-1.171c-1.058,0-1.786,0.398-2.188,1.194
		c-0.402,0.797-0.604,2.023-0.604,3.68c0,1.594,0.193,2.789,0.58,3.586c0.386,0.796,1.123,1.194,2.212,1.194
		c1.12,0,1.894-0.391,2.319-1.171C330.154,40.037,330.367,38.834,330.367,37.209z"/>
</g>
<g enable-background="new    ">
	<path fill="#43525A" d="M341.859,41.989c0.805,0,1.42-0.236,1.846-0.71c0.426-0.473,0.64-1.207,0.64-2.2l-0.024-9.253
		c0-0.157,0.039-0.288,0.119-0.391c0.078-0.103,0.221-0.153,0.426-0.153h2.721c0.221,0,0.359,0.059,0.414,0.177
		c0.056,0.118,0.084,0.241,0.084,0.367l-0.023,9.348c0,0.457-0.028,0.919-0.084,1.384c-0.055,0.466-0.178,0.943-0.366,1.432
		c-0.237,0.584-0.556,1.081-0.958,1.491s-0.86,0.745-1.373,1.006c-0.513,0.26-1.061,0.449-1.645,0.567
		c-0.584,0.119-1.176,0.178-1.775,0.178c-0.994,0.016-1.873-0.122-2.639-0.414c-0.765-0.292-1.408-0.706-1.928-1.242
		c-0.521-0.536-0.916-1.18-1.184-1.929c-0.269-0.749-0.402-1.574-0.402-2.473v-9.348c0-0.157,0.035-0.288,0.106-0.391
		s0.209-0.153,0.414-0.153h2.722c0.221,0,0.358,0.059,0.414,0.177c0.055,0.118,0.083,0.241,0.083,0.367v9.253
		C339.446,41.02,340.25,41.989,341.859,41.989z"/>
</g>
<g enable-background="new    ">
	<path fill="#43525A" d="M360.105,32.288c-0.07,0.094-0.209,0.141-0.414,0.141h-3.502v12.068c0,0.126-0.027,0.245-0.082,0.355
		c-0.057,0.111-0.193,0.166-0.414,0.166h-2.723c-0.205,0-0.342-0.047-0.414-0.142c-0.07-0.095-0.105-0.222-0.105-0.38V32.429h-3.479
		c-0.222,0-0.363-0.047-0.427-0.141s-0.095-0.211-0.095-0.353v-2.137c0-0.157,0.031-0.282,0.095-0.376s0.205-0.141,0.427-0.141
		h10.719c0.348,0,0.521,0.172,0.521,0.517v2.137C360.213,32.077,360.177,32.194,360.105,32.288z"/>
</g>
<g enable-background="new    ">
	<path fill="#43525A" d="M372.416,44.427c0.078,0.174,0.09,0.316,0.035,0.426c-0.055,0.111-0.17,0.166-0.343,0.166h-2.911
		c-0.236,0-0.43-0.035-0.58-0.106c-0.149-0.071-0.264-0.209-0.342-0.414l-2.414-5.467h-1.539v5.467c0,0.126-0.027,0.245-0.082,0.354
		c-0.056,0.111-0.193,0.166-0.414,0.166h-2.722c-0.222,0-0.366-0.047-0.438-0.142c-0.07-0.095-0.105-0.221-0.105-0.379V29.803
		c0-0.143,0.035-0.265,0.105-0.367c0.072-0.103,0.217-0.153,0.438-0.153h5.798c0.631,0,1.258,0.094,1.881,0.283
		s1.18,0.478,1.668,0.864c0.489,0.387,0.884,0.884,1.184,1.49c0.3,0.608,0.449,1.33,0.449,2.166c0,0.395-0.043,0.801-0.129,1.219
		c-0.088,0.418-0.233,0.816-0.438,1.194c-0.205,0.379-0.474,0.73-0.805,1.054s-0.733,0.596-1.206,0.816L372.416,44.427z
		 M368.203,34.109c0-0.615-0.186-1.049-0.556-1.302c-0.37-0.252-0.832-0.379-1.384-0.379h-1.941v3.526h1.894
		c0.205,0,0.427-0.023,0.663-0.071c0.236-0.047,0.453-0.134,0.65-0.26s0.359-0.312,0.485-0.557
		C368.14,34.823,368.203,34.504,368.203,34.109z"/>
</g>
<g enable-background="new    ">
	<path fill="#43525A" d="M386.677,36.949c0,0.899-0.067,1.834-0.201,2.804c-0.135,0.971-0.438,1.862-0.911,2.675
		s-1.163,1.482-2.07,2.011c-0.907,0.529-2.134,0.793-3.681,0.793c-1.025,0-1.904-0.122-2.638-0.367
		c-0.733-0.244-1.349-0.571-1.847-0.981c-0.496-0.41-0.891-0.892-1.183-1.443c-0.292-0.553-0.517-1.136-0.675-1.752
		c-0.157-0.615-0.26-1.242-0.307-1.881c-0.048-0.639-0.072-1.258-0.072-1.857c0-0.458,0.028-0.975,0.084-1.55
		c0.055-0.576,0.165-1.151,0.331-1.728c0.165-0.576,0.397-1.14,0.698-1.692c0.299-0.552,0.697-1.041,1.195-1.467
		c0.496-0.427,1.107-0.77,1.834-1.029c0.725-0.261,1.593-0.391,2.603-0.391c1.482,0,2.67,0.232,3.562,0.698
		c0.891,0.465,1.582,1.072,2.07,1.821c0.488,0.75,0.813,1.594,0.971,2.532C386.598,35.084,386.677,36.019,386.677,36.949z
		 M382.82,37.209c0-1.688-0.209-2.922-0.627-3.703s-1.195-1.171-2.331-1.171c-1.058,0-1.786,0.398-2.188,1.194
		c-0.402,0.797-0.604,2.023-0.604,3.68c0,1.594,0.193,2.789,0.58,3.586c0.386,0.796,1.123,1.194,2.212,1.194
		c1.12,0,1.894-0.391,2.319-1.171C382.607,40.037,382.82,38.834,382.82,37.209z"/>
</g>
<g enable-background="new    ">
	<path fill="#43525A" d="M393.059,45.231c-0.253,0-0.567-0.012-0.946-0.035s-0.781-0.063-1.207-0.118
		c-0.426-0.056-0.855-0.131-1.289-0.226c-0.435-0.095-0.841-0.213-1.219-0.354c-0.395-0.157-0.615-0.308-0.663-0.45
		c-0.048-0.142-0.048-0.322,0-0.544l0.284-1.372c0.078-0.315,0.173-0.489,0.283-0.521c0.111-0.032,0.324-0.024,0.639,0.023
		c0.285,0.031,0.6,0.067,0.947,0.106c0.347,0.039,0.701,0.075,1.064,0.106s0.727,0.059,1.089,0.083
		c0.362,0.023,0.71,0.035,1.042,0.035c0.805,0,1.392-0.126,1.762-0.379c0.371-0.252,0.557-0.631,0.557-1.136
		c0-0.284-0.039-0.517-0.118-0.698c-0.079-0.181-0.21-0.335-0.391-0.461c-0.182-0.126-0.41-0.232-0.687-0.319
		c-0.275-0.087-0.611-0.17-1.006-0.249c-0.678-0.142-1.348-0.312-2.011-0.509s-1.255-0.469-1.774-0.816
		c-0.521-0.347-0.943-0.796-1.267-1.349c-0.323-0.552-0.485-1.254-0.485-2.106c0-0.772,0.134-1.459,0.402-2.059
		c0.268-0.6,0.65-1.101,1.148-1.503c0.496-0.402,1.1-0.71,1.81-0.923s1.499-0.319,2.366-0.319c0.221,0,0.51,0.004,0.864,0.012
		c0.354,0.009,0.741,0.036,1.159,0.083c0.418,0.048,0.844,0.118,1.278,0.213c0.434,0.095,0.84,0.222,1.218,0.379
		c0.395,0.142,0.616,0.288,0.663,0.438c0.048,0.15,0.056,0.336,0.024,0.557l-0.332,1.396c-0.031,0.158-0.07,0.272-0.118,0.344
		c-0.048,0.07-0.11,0.118-0.189,0.142s-0.177,0.032-0.296,0.023c-0.118-0.008-0.256-0.02-0.414-0.035
		c-0.536-0.079-1.084-0.142-1.645-0.189c-0.561-0.047-1.203-0.071-1.929-0.071c-0.694,0-1.211,0.111-1.55,0.332
		c-0.34,0.221-0.509,0.584-0.509,1.088c0,0.253,0.036,0.458,0.106,0.615c0.07,0.158,0.189,0.293,0.355,0.402
		c0.165,0.111,0.382,0.201,0.65,0.272c0.268,0.071,0.6,0.146,0.994,0.225c0.678,0.143,1.349,0.308,2.012,0.497
		c0.662,0.189,1.254,0.458,1.774,0.805c0.521,0.348,0.942,0.809,1.266,1.385s0.485,1.329,0.485,2.26s-0.174,1.712-0.521,2.343
		s-0.809,1.136-1.384,1.515c-0.576,0.378-1.239,0.65-1.988,0.816C394.617,45.148,393.848,45.231,393.059,45.231z"/>
</g>
<g enable-background="new    ">
	<path fill="#43525A" d="M128.101,15.942c0,0.272-0.039,0.552-0.115,0.837c-0.077,0.285-0.209,0.546-0.399,0.783
		c-0.189,0.236-0.443,0.429-0.761,0.578c-0.318,0.148-0.719,0.223-1.202,0.223h-1.583v3.034c0,0.137-0.067,0.205-0.202,0.205h-0.511
		c-0.143,0-0.214-0.068-0.214-0.205v-7.587c0-0.128,0.072-0.192,0.217-0.192h2.288c0.353,0,0.682,0.048,0.987,0.145
		c0.305,0.096,0.568,0.24,0.789,0.434c0.221,0.192,0.393,0.436,0.518,0.729C128.038,15.218,128.101,15.557,128.101,15.942z
		 M127.174,15.954c0-0.506-0.149-0.879-0.447-1.12c-0.298-0.24-0.693-0.361-1.185-0.361h-1.499v3.06h1.572
		c0.306,0,0.56-0.044,0.762-0.133c0.201-0.088,0.36-0.206,0.477-0.355c0.117-0.148,0.2-0.316,0.248-0.506
		C127.149,16.35,127.174,16.155,127.174,15.954z"/>
</g>
<g enable-background="new    ">
	<path fill="#43525A" d="M138.053,21.397c0.024,0.057,0.026,0.104,0.006,0.145c-0.02,0.041-0.058,0.061-0.114,0.061h-0.687
		c-0.064,0-0.116-0.01-0.156-0.03c-0.041-0.02-0.077-0.062-0.108-0.126l-1.542-3.204h-1.578v3.144c0,0.145-0.068,0.217-0.205,0.217
		h-0.518c-0.137,0-0.205-0.068-0.205-0.205v-7.587c0-0.128,0.068-0.192,0.205-0.192h2.457c0.297,0,0.586,0.042,0.867,0.126
		c0.281,0.085,0.53,0.217,0.747,0.397s0.39,0.416,0.518,0.705s0.193,0.634,0.193,1.035c0,0.225-0.028,0.452-0.084,0.681
		s-0.145,0.443-0.265,0.645c-0.12,0.2-0.279,0.379-0.476,0.536c-0.197,0.156-0.432,0.278-0.705,0.367L138.053,21.397z
		 M136.958,15.863c0-0.281-0.044-0.514-0.133-0.695c-0.088-0.181-0.207-0.322-0.355-0.423c-0.149-0.101-0.317-0.171-0.506-0.212
		c-0.189-0.04-0.383-0.061-0.584-0.061h-1.505v2.938h1.481c0.177,0,0.359-0.018,0.548-0.054c0.188-0.036,0.361-0.109,0.518-0.218
		c0.157-0.108,0.285-0.266,0.385-0.472C136.907,16.462,136.958,16.194,136.958,15.863z"/>
</g>
<g enable-background="new    ">
	<path fill="#43525A" d="M149.082,17.496c0,0.474-0.028,0.959-0.084,1.457s-0.19,0.951-0.403,1.36
		c-0.212,0.41-0.527,0.745-0.944,1.006c-0.417,0.261-0.981,0.392-1.694,0.392c-0.473,0-0.875-0.061-1.208-0.181
		c-0.333-0.12-0.611-0.283-0.835-0.487c-0.225-0.205-0.403-0.446-0.535-0.723c-0.132-0.277-0.234-0.572-0.306-0.886
		c-0.072-0.313-0.119-0.634-0.139-0.963c-0.02-0.329-0.03-0.654-0.03-0.976c0-0.249,0.012-0.52,0.036-0.813
		c0.024-0.293,0.072-0.586,0.144-0.879s0.178-0.578,0.319-0.855c0.14-0.276,0.322-0.52,0.547-0.729
		c0.224-0.208,0.502-0.377,0.835-0.506c0.333-0.128,0.728-0.192,1.184-0.192c0.681,0,1.228,0.116,1.641,0.35
		c0.413,0.232,0.727,0.536,0.944,0.909c0.216,0.373,0.358,0.797,0.427,1.271C149.048,16.524,149.082,17.006,149.082,17.496z
		 M148.155,17.61c0-0.521-0.034-0.985-0.103-1.395c-0.068-0.408-0.187-0.751-0.355-1.027c-0.169-0.276-0.394-0.487-0.675-0.632
		c-0.281-0.144-0.634-0.216-1.06-0.216c-0.401,0-0.737,0.076-1.006,0.229s-0.483,0.37-0.644,0.655
		c-0.161,0.284-0.275,0.627-0.343,1.027c-0.068,0.4-0.103,0.854-0.103,1.358c0,0.489,0.03,0.932,0.09,1.328
		c0.061,0.396,0.169,0.737,0.325,1.021c0.157,0.285,0.369,0.506,0.638,0.662c0.269,0.155,0.616,0.233,1.042,0.233
		c0.434,0,0.791-0.074,1.072-0.222c0.281-0.148,0.506-0.361,0.674-0.638c0.169-0.276,0.285-0.616,0.349-1.021
		C148.122,18.57,148.155,18.115,148.155,17.61z"/>
</g>
<g enable-background="new    ">
	<path fill="#43525A" d="M156.671,21.175c-0.341,0.357-0.921,0.536-1.74,0.536c-0.257,0-0.506-0.019-0.747-0.055
		s-0.482-0.102-0.723-0.198c-0.096-0.04-0.155-0.082-0.175-0.126c-0.02-0.045-0.022-0.099-0.006-0.163l0.084-0.337
		c0.016-0.057,0.038-0.095,0.066-0.114c0.028-0.021,0.079-0.022,0.151-0.007c0.176,0.024,0.387,0.049,0.632,0.072
		c0.245,0.024,0.452,0.036,0.621,0.036c0.281,0,0.512-0.025,0.692-0.078c0.181-0.052,0.323-0.13,0.427-0.234
		c0.104-0.104,0.177-0.233,0.217-0.386s0.061-0.329,0.061-0.529v-5.757c0-0.089,0.018-0.146,0.054-0.175s0.09-0.042,0.163-0.042
		h0.518c0.072,0,0.126,0.014,0.163,0.042s0.054,0.086,0.054,0.175v5.841C157.183,20.318,157.012,20.817,156.671,21.175z"/>
</g>
<g enable-background="new    ">
	<path fill="#43525A" d="M167.366,21.566c-0.032,0.024-0.084,0.036-0.156,0.036h-4.218c-0.143,0-0.214-0.064-0.214-0.192v-7.588
		c0-0.136,0.071-0.204,0.214-0.204h4.146c0.136,0,0.205,0.063,0.205,0.189v0.464c0,0.135-0.072,0.201-0.217,0.201h-3.42v2.554h3.071
		c0.136,0,0.205,0.064,0.205,0.192v0.47c0,0.129-0.068,0.192-0.205,0.192h-3.071v2.866h3.517c0.128,0,0.193,0.068,0.193,0.205v0.458
		C167.414,21.49,167.398,21.542,167.366,21.566z"/>
</g>
<g enable-background="new    ">
	<path fill="#43525A" d="M177.038,14.473h-2.023v6.925c0,0.137-0.064,0.205-0.192,0.205h-0.518c-0.145,0-0.217-0.068-0.217-0.205
		v-6.925h-2.011c-0.145,0-0.217-0.066-0.217-0.201v-0.464c0-0.126,0.068-0.189,0.205-0.189h4.986c0.136,0,0.205,0.063,0.205,0.189
		v0.464C177.255,14.406,177.183,14.473,177.038,14.473z"/>
</g>
<g enable-background="new    ">
	<path fill="#43525A" d="M187.823,17.496c0,0.474-0.028,0.959-0.084,1.457s-0.19,0.951-0.403,1.36
		c-0.212,0.41-0.527,0.745-0.944,1.006c-0.417,0.261-0.981,0.392-1.694,0.392c-0.473,0-0.875-0.061-1.208-0.181
		c-0.333-0.12-0.611-0.283-0.835-0.487c-0.225-0.205-0.403-0.446-0.535-0.723c-0.132-0.277-0.234-0.572-0.306-0.886
		c-0.072-0.313-0.119-0.634-0.139-0.963c-0.02-0.329-0.03-0.654-0.03-0.976c0-0.249,0.012-0.52,0.036-0.813
		c0.024-0.293,0.072-0.586,0.144-0.879s0.178-0.578,0.319-0.855c0.14-0.276,0.322-0.52,0.547-0.729
		c0.224-0.208,0.502-0.377,0.835-0.506c0.333-0.128,0.728-0.192,1.184-0.192c0.681,0,1.228,0.116,1.641,0.35
		c0.413,0.232,0.727,0.536,0.944,0.909c0.216,0.373,0.358,0.797,0.427,1.271C187.789,16.524,187.823,17.006,187.823,17.496z
		 M186.896,17.61c0-0.521-0.034-0.985-0.103-1.395c-0.068-0.408-0.187-0.751-0.355-1.027c-0.169-0.276-0.394-0.487-0.675-0.632
		c-0.281-0.144-0.634-0.216-1.06-0.216c-0.401,0-0.737,0.076-1.006,0.229s-0.483,0.37-0.644,0.655
		c-0.161,0.284-0.275,0.627-0.343,1.027c-0.068,0.4-0.103,0.854-0.103,1.358c0,0.489,0.03,0.932,0.09,1.328
		c0.061,0.396,0.169,0.737,0.325,1.021c0.157,0.285,0.369,0.506,0.638,0.662c0.269,0.155,0.616,0.233,1.042,0.233
		c0.434,0,0.791-0.074,1.072-0.222c0.281-0.148,0.506-0.361,0.674-0.638c0.169-0.276,0.285-0.616,0.349-1.021
		C186.864,18.57,186.896,18.115,186.896,17.61z"/>
</g>
<g enable-background="new    ">
	<path fill="#43525A" d="M201.295,19.387c0,0.434-0.072,0.799-0.217,1.096s-0.343,0.536-0.596,0.717s-0.546,0.312-0.879,0.392
		c-0.333,0.08-0.685,0.12-1.054,0.12c-0.168,0-0.357-0.008-0.566-0.024c-0.209-0.016-0.417-0.038-0.626-0.066
		c-0.209-0.027-0.412-0.062-0.608-0.102s-0.359-0.089-0.488-0.145c-0.088-0.04-0.141-0.08-0.156-0.121
		c-0.017-0.04-0.017-0.088,0-0.145l0.084-0.337c0.024-0.088,0.092-0.128,0.205-0.12c0.169,0.023,0.354,0.046,0.554,0.066
		c0.201,0.02,0.399,0.038,0.596,0.054c0.197,0.017,0.381,0.028,0.554,0.036c0.173,0.008,0.319,0.012,0.44,0.012
		c0.602,0,1.058-0.112,1.367-0.337s0.464-0.542,0.464-0.951c0-0.273-0.026-0.5-0.079-0.681s-0.143-0.329-0.271-0.445
		s-0.301-0.209-0.518-0.277s-0.486-0.13-0.807-0.187c-0.361-0.056-0.698-0.126-1.011-0.211c-0.313-0.084-0.586-0.2-0.819-0.349
		s-0.416-0.348-0.548-0.597s-0.199-0.574-0.199-0.976c0-0.738,0.221-1.301,0.663-1.686c0.441-0.386,1.076-0.578,1.903-0.578
		c0.12,0,0.269,0.004,0.445,0.012s0.365,0.024,0.566,0.048c0.2,0.024,0.401,0.057,0.602,0.097s0.381,0.093,0.542,0.156
		c0.088,0.032,0.14,0.071,0.156,0.115s0.016,0.094,0,0.15l-0.072,0.325c-0.016,0.04-0.038,0.076-0.066,0.108
		c-0.028,0.032-0.083,0.044-0.163,0.036c-0.265-0.04-0.578-0.078-0.939-0.114s-0.719-0.055-1.072-0.055
		c-0.313,0-0.576,0.032-0.789,0.097s-0.381,0.154-0.506,0.271s-0.213,0.259-0.265,0.428c-0.052,0.169-0.079,0.354-0.079,0.554
		c0,0.241,0.03,0.432,0.091,0.572c0.06,0.141,0.159,0.255,0.296,0.343c0.137,0.089,0.314,0.159,0.531,0.211
		c0.217,0.053,0.483,0.106,0.797,0.163c0.346,0.064,0.674,0.137,0.984,0.217c0.31,0.08,0.58,0.202,0.809,0.367
		c0.229,0.164,0.411,0.386,0.543,0.662C201.229,18.586,201.295,18.945,201.295,19.387z"/>
</g>
<g enable-background="new    ">
	<path fill="#43525A" d="M212.461,17.496c0,0.474-0.027,0.959-0.084,1.457s-0.19,0.951-0.402,1.36
		c-0.213,0.41-0.527,0.745-0.944,1.006s-0.981,0.392-1.694,0.392c-0.473,0-0.875-0.061-1.208-0.181s-0.611-0.283-0.835-0.487
		c-0.225-0.205-0.403-0.446-0.535-0.723c-0.133-0.277-0.234-0.572-0.307-0.886c-0.072-0.313-0.119-0.634-0.139-0.963
		s-0.029-0.654-0.029-0.976c0-0.249,0.012-0.52,0.035-0.813c0.024-0.293,0.072-0.586,0.145-0.879s0.178-0.578,0.318-0.855
		c0.141-0.276,0.322-0.52,0.547-0.729c0.225-0.208,0.503-0.377,0.836-0.506c0.332-0.128,0.727-0.192,1.184-0.192
		c0.682,0,1.229,0.116,1.641,0.35c0.413,0.232,0.727,0.536,0.943,0.909s0.359,0.797,0.428,1.271
		C212.427,16.524,212.461,17.006,212.461,17.496z M211.533,17.61c0-0.521-0.033-0.985-0.102-1.395
		c-0.068-0.408-0.188-0.751-0.355-1.027c-0.169-0.276-0.394-0.487-0.675-0.632c-0.28-0.144-0.634-0.216-1.06-0.216
		c-0.401,0-0.736,0.076-1.006,0.229s-0.483,0.37-0.645,0.655c-0.16,0.284-0.275,0.627-0.343,1.027
		c-0.068,0.4-0.103,0.854-0.103,1.358c0,0.489,0.03,0.932,0.09,1.328c0.061,0.396,0.17,0.737,0.326,1.021
		c0.156,0.285,0.369,0.506,0.638,0.662c0.269,0.155,0.616,0.233,1.042,0.233c0.434,0,0.791-0.074,1.072-0.222
		c0.28-0.148,0.506-0.361,0.674-0.638c0.169-0.276,0.285-0.616,0.35-1.021C211.502,18.57,211.533,18.115,211.533,17.61z"/>
</g>
<g enable-background="new    ">
	<path fill="#43525A" d="M220.756,13.533c0.119,0,0.268,0.005,0.445,0.013c0.176,0.008,0.365,0.023,0.565,0.048
		s0.401,0.057,0.603,0.097c0.2,0.04,0.381,0.092,0.541,0.156c0.089,0.04,0.141,0.08,0.157,0.12c0.017,0.041,0.017,0.089,0,0.145
		l-0.072,0.338c-0.017,0.04-0.038,0.076-0.066,0.108s-0.082,0.04-0.162,0.023c-0.265-0.04-0.577-0.078-0.934-0.114
		c-0.357-0.036-0.717-0.054-1.077-0.054c-0.467,0-0.836,0.088-1.109,0.265c-0.272,0.177-0.48,0.415-0.625,0.717
		c-0.145,0.301-0.237,0.65-0.277,1.048c-0.041,0.397-0.061,0.816-0.061,1.258c0,0.402,0.024,0.791,0.072,1.169
		c0.049,0.377,0.146,0.71,0.295,0.999s0.359,0.521,0.633,0.692c0.272,0.173,0.63,0.259,1.072,0.259c0.369,0,0.722-0.018,1.059-0.054
		c0.338-0.036,0.65-0.074,0.939-0.114c0.089-0.017,0.146-0.006,0.175,0.03s0.05,0.074,0.066,0.114l0.06,0.313
		c0.017,0.064,0.019,0.117,0.007,0.157c-0.013,0.04-0.059,0.076-0.139,0.108c-0.145,0.064-0.317,0.116-0.518,0.156
		c-0.201,0.04-0.403,0.072-0.608,0.097c-0.205,0.023-0.399,0.042-0.584,0.054c-0.186,0.012-0.338,0.019-0.457,0.019
		c-0.635,0-1.15-0.11-1.549-0.331c-0.398-0.222-0.711-0.517-0.938-0.886c-0.229-0.369-0.383-0.795-0.463-1.276
		c-0.082-0.481-0.123-0.983-0.123-1.506c0-0.529,0.039-1.045,0.116-1.547s0.226-0.945,0.445-1.331s0.53-0.696,0.932-0.934
		C219.578,13.652,220.105,13.533,220.756,13.533z"/>
</g>
<g enable-background="new    ">
	<path fill="#43525A" d="M228.854,21.603h-0.53c-0.145,0-0.217-0.068-0.217-0.205v-7.563c0-0.089,0.019-0.146,0.055-0.175
		s0.09-0.042,0.162-0.042h0.53c0.064,0,0.114,0.014,0.151,0.042c0.035,0.028,0.054,0.086,0.054,0.175v7.563
		C229.059,21.534,228.991,21.603,228.854,21.603z"/>
</g>
<g enable-background="new    ">
	<path fill="#43525A" d="M234.985,21.41c-0.024,0.08-0.056,0.132-0.097,0.156c-0.039,0.024-0.092,0.036-0.156,0.036h-0.626
		c-0.112,0-0.145-0.064-0.097-0.192l2.518-7.6c0.031-0.12,0.107-0.181,0.229-0.181h0.674c0.08,0,0.135,0.017,0.163,0.048
		c0.028,0.032,0.05,0.077,0.066,0.133l2.517,7.623c0.024,0.113-0.008,0.169-0.096,0.169h-0.734c-0.064,0-0.111-0.012-0.139-0.036
		c-0.029-0.024-0.051-0.064-0.066-0.12l-0.59-1.976h-2.939L234.985,21.41z M237.683,16.604l-0.578-1.951h-0.037l-0.565,1.915
		l-0.614,2.048h2.396L237.683,16.604z"/>
</g>
<g enable-background="new    ">
	<path fill="#43525A" d="M249.556,21.603h-4.335c-0.145,0-0.217-0.064-0.217-0.192v-7.575c0-0.089,0.019-0.146,0.054-0.175
		c0.037-0.028,0.086-0.042,0.15-0.042h0.53c0.064,0,0.112,0.014,0.145,0.042s0.048,0.086,0.048,0.175v6.912h3.613
		c0.137,0,0.205,0.068,0.205,0.205v0.458C249.75,21.538,249.685,21.603,249.556,21.603z"/>
</g>
</svg>
